<svg width="71" height="64" viewBox="0 0 71 64" fill="none" xmlns="http://www.w3.org/2000/svg">
<path d="M36.1715 10.5139C35.8977 10.566 35.6121 10.5838 35.3532 10.6791C34.8905 10.8487 34.4575 11.1061 33.9888 11.2489C33.6972 11.3382 33.2181 11.4245 33.0708 11.2727C32.5262 10.7088 32.0233 11.0213 31.4639 11.1641C30.3659 11.4423 27.9481 10.3309 27.4913 9.2998C27.3797 9.04836 27.4943 8.50975 27.6996 8.34459C28.0835 8.03512 28.6027 7.74796 29.0803 7.72118C31.824 7.57239 34.5706 7.4861 37.3186 7.4251C37.707 7.41617 38.1221 7.62298 38.4807 7.81194C38.628 7.88931 38.7559 8.21218 38.7128 8.37733C38.6771 8.51272 38.3854 8.63027 38.192 8.66449C37.7308 8.74781 37.2591 8.77608 36.7919 8.82666C35.7251 8.9442 34.1257 9.7298 33.2761 10.743C33.5469 10.7133 33.837 10.7326 34.0855 10.6419C34.5482 10.4737 34.9723 10.1821 35.4439 10.0556C35.7683 9.96934 36.234 9.95 36.4765 10.1226C36.85 10.3904 37.0984 10.3383 37.4734 10.1866C39.9909 9.16143 42.5098 8.14076 45.0526 7.18109C45.5495 6.99361 45.7028 6.78531 45.679 6.29432C45.6447 5.57717 45.6254 4.85407 45.6819 4.14138C45.7221 3.6489 45.9006 3.16683 45.8813 2.6059C45.7727 2.70559 45.6641 2.80528 45.554 2.90348C45.1002 3.30669 44.6047 3.33496 44.1435 2.96299C43.7075 2.61037 43.6019 2.13425 43.9203 1.64028C44.2506 1.12697 44.755 0.982644 45.2757 1.25492C45.9438 1.60308 46.4363 1.48108 46.8797 0.903787C47.2933 0.366668 47.8974 0.238712 48.3675 0.598775C48.8079 0.935032 48.9642 1.38139 48.7008 1.9081C48.436 2.43926 47.8587 2.61334 47.2338 2.35445C47.1028 2.30089 46.9808 2.2265 46.7264 2.09408C46.7264 2.45861 46.655 2.74725 46.7383 2.98085C47.3602 4.74396 46.9213 6.56213 47.0463 8.34906C47.0775 8.78947 47.0284 9.20756 47.4629 9.54084C47.6191 9.65987 47.6772 10.1211 47.576 10.3249C47.0017 11.4721 46.9749 11.4885 47.1118 12.8707C55.6566 13.3766 62.4531 17.0694 67.1518 24.3049C70.44 29.3681 71.5618 34.9848 70.6914 40.9288C68.8554 53.4641 58.0163 62.0892 46.0316 61.8407C33.105 61.5729 22.7778 51.5046 22.0606 38.7655C21.6782 31.9778 23.8059 25.9728 28.3944 20.9304C32.98 15.8925 38.7649 13.2962 45.6551 12.9064C45.5317 12.039 46.0346 11.1611 45.2266 10.3919C45.0838 10.2565 45.2505 9.74468 45.3442 9.42627C45.4305 9.13911 45.612 8.88023 45.7519 8.60795C45.6923 8.55141 45.6328 8.49338 45.5733 8.43684C45.185 8.55587 44.7937 8.67044 44.4068 8.79691C39.2975 10.4618 34.5884 12.8737 30.4328 16.3121C25.8561 20.0987 22.4355 24.7855 19.7232 30.0272C17.7637 33.8139 16.2118 37.7716 14.776 41.7784C14.6034 42.2605 14.715 42.4673 15.1733 42.6815C19.4063 44.6619 21.8419 48.9663 21.3539 53.5563C20.8688 58.1181 17.4512 61.8884 12.9043 62.8778C5.62119 64.4624 -1.03997 58.1255 0.135438 50.7309C1.08172 44.7779 6.53474 40.8663 12.5308 41.8662C13.1498 41.9688 13.3759 41.7843 13.5783 41.2056C15.7744 34.9312 18.3424 28.831 22.1781 23.3438C25.7252 18.2701 30.168 14.1815 35.5838 11.1641C35.8114 11.0376 36.0287 10.8933 36.2504 10.7579C36.2251 10.6746 36.1998 10.5913 36.1745 10.5079L36.1715 10.5139ZM45.6328 13.4405C44.3146 13.6087 43.0797 13.6935 41.873 13.93C29.3705 16.3791 21.0265 28.1868 22.8388 40.8321C24.3921 51.6712 33.285 60.1952 44.1703 61.1742C49.7215 61.6741 54.8784 60.4258 59.589 57.3712C71.8192 49.4424 74.06 32.0745 64.1969 21.3411C59.7497 16.5026 54.2133 13.9137 47.6563 13.5194C47.4629 13.5075 47.1237 13.686 47.079 13.8423C46.9541 14.2752 47.2784 14.3288 47.6429 14.3809C49.2558 14.61 50.9014 14.735 52.4681 15.1516C64.7415 18.4174 72.1302 31.0509 68.7096 43.5237C66.1475 52.8674 57.9717 59.4617 48.7871 60.2993C42.5217 60.8707 36.841 59.3144 32.0248 55.2912C24.9143 49.3531 22.2421 41.6876 23.9561 32.5834C25.6077 23.8095 33.0946 16.4445 41.873 14.8168C43.1064 14.5877 44.3562 14.4433 45.6313 14.2544V13.4405H45.6328ZM45.6343 30.6016C42.8014 30.3977 39.7677 33.7752 39.6799 37.1839C39.5802 41.088 42.8743 44.2363 46.8678 44.1545C50.1128 44.0876 53.8935 41.1907 53.398 36.3715C53.0826 33.3065 49.7572 30.1969 47.0642 30.5882C47.0642 31.8841 47.0805 33.1904 47.0567 34.4968C47.0463 35.1038 47.1014 35.5844 47.6548 36.0293C48.4136 36.6378 48.3497 37.8668 47.6623 38.5467C46.9749 39.2267 45.795 39.2178 45.1165 38.5259C44.4306 37.8281 44.4455 36.6839 45.1493 35.9876C45.7533 35.3895 45.8114 35.1351 45.5376 34.281C44.6984 35.08 44.0959 35.1857 43.4873 34.6411C42.9904 34.1977 42.8981 33.3898 43.349 32.9077C43.5558 32.686 43.9054 32.4093 44.145 32.448C44.6583 32.5298 45.1433 32.7991 45.6343 32.9896V30.6001V30.6016ZM59.1322 24.6799C56.3216 24.6888 53.9619 27.0441 53.9649 29.8368C53.9678 32.7292 56.3187 35.0607 59.223 35.0503C62.0663 35.0413 64.4097 32.6652 64.3829 29.8189C64.3561 26.9637 62.0127 24.6694 59.1307 24.6799H59.1322ZM39.119 30.1463C39.119 27.2911 36.7726 24.9625 33.9114 24.973C31.0339 24.9849 28.7322 27.2925 28.7262 30.1701C28.7203 33.0119 31.0696 35.3449 33.9367 35.3449C36.7905 35.3449 39.1204 33.0074 39.119 30.1448V30.1463ZM34.1212 49.9468C37.0166 49.9363 39.2841 47.6525 39.2767 44.7541C39.2692 41.887 36.9497 39.5897 34.0677 39.5957C31.1946 39.6002 28.9122 41.9138 28.9256 44.8077C28.939 47.7165 31.2065 49.9587 34.1212 49.9468ZM59.3078 49.6581C62.2032 49.6745 64.5198 47.404 64.5391 44.5309C64.5585 41.6594 62.2508 39.316 59.3941 39.3026C56.4779 39.2892 54.1613 41.6013 54.1687 44.519C54.1747 47.3668 56.4511 49.6417 59.3093 49.6581H59.3078ZM51.9473 51.9316C51.9577 49.0198 49.7111 46.7389 46.8142 46.7196C43.9203 46.7002 41.6082 48.9737 41.5918 51.8512C41.5754 54.7436 43.8533 57.0513 46.7324 57.0558C49.653 57.0617 51.9369 54.818 51.9458 51.9316H51.9473ZM47.1103 17.5679V27.6898C49.4447 27.663 51.5783 25.3167 51.6155 22.7962C51.6542 20.0764 49.6129 17.6765 47.1103 17.5679ZM45.6284 17.6051C43.3058 17.6482 41.2704 20.0883 41.2555 22.6891C41.2392 25.6276 43.8533 27.7315 45.6284 27.6571V17.6065V17.6051ZM10.7275 42.2158C10.0416 42.2947 9.29324 42.3185 8.57311 42.4747C3.10819 43.6546 -0.419535 49.0793 0.751414 54.4639C1.94468 59.9467 7.23999 63.4402 12.7094 62.3541C17.0004 61.5015 20.2261 57.9574 20.7944 53.473C21.3196 49.3204 18.9272 45.0651 15.0171 43.2335C14.8221 43.1428 14.5528 43.2112 14.3178 43.2052C14.4799 43.3764 14.6124 43.6055 14.8088 43.7096C18.4317 45.6171 20.3734 48.6211 20.2767 52.7008C20.1442 58.3368 15.2789 62.4686 9.66074 61.9166C5.7923 61.5357 2.58744 58.8248 1.44922 54.9683C0.379448 51.3439 1.73192 47.2002 4.76269 44.8627C7.0421 43.1056 9.60867 42.4821 12.449 42.9404C12.6156 42.9672 12.8076 42.8392 12.9891 42.7827C12.8448 42.6622 12.7124 42.4658 12.5517 42.4375C11.9699 42.3348 11.3763 42.2887 10.7261 42.2143L10.7275 42.2158ZM10.2261 51.4897C9.88987 51.3007 9.59974 51.1817 9.37805 50.9853C9.31853 50.9317 9.45095 50.5002 9.51196 50.4973C9.81102 50.4779 10.1145 50.5449 10.5088 50.5925C10.5862 50.3128 10.6918 49.9363 10.8049 49.5316C9.2486 49.4959 8.01665 50.5627 7.84853 51.9881C7.67296 53.476 8.62519 54.824 10.1145 55.193C11.4789 55.5307 12.9147 54.7436 13.4474 53.3659C13.9577 52.0461 13.4221 50.5642 12.2005 49.9512C11.9297 50.774 11.6589 51.5938 11.3882 52.4151C11.2379 52.8689 10.9567 53.1665 10.4508 53.0088C9.94046 52.8481 9.89285 52.436 10.0372 51.9836C10.1012 51.7798 10.1904 51.5849 10.2291 51.4897H10.2261ZM16.0571 57.5512C17.292 57.5483 18.2933 56.5499 18.2829 55.3343C18.2725 54.1782 17.234 53.1486 16.0794 53.1501C14.8712 53.1516 13.8595 54.1782 13.8714 55.3879C13.8833 56.593 14.8534 57.5527 16.0571 57.5512ZM5.52151 57.6554C6.74602 57.6494 7.71313 56.7151 7.72652 55.5218C7.73991 54.3122 6.73114 53.29 5.52151 53.287C4.29551 53.2855 3.33583 54.272 3.34774 55.5218C3.35964 56.7537 4.2836 57.6598 5.52151 57.6539V57.6554ZM12.9906 58.4082C12.9802 57.209 11.9997 56.2419 10.8079 56.2568C9.61462 56.2717 8.62817 57.2447 8.61329 58.4246C8.59692 59.6551 9.57147 60.6266 10.8228 60.6266C12.0904 60.6266 13.001 59.6952 12.9891 58.4097L12.9906 58.4082ZM7.61791 49.371C7.62088 48.1554 6.68204 47.1927 5.48133 47.1778C4.26426 47.163 3.24507 48.1643 3.24507 49.3784C3.24507 50.5702 4.21367 51.5432 5.41438 51.5551C6.68502 51.567 7.61493 50.6446 7.61791 49.371ZM18.1713 49.2847C18.1817 48.0363 17.2131 47.0424 15.9901 47.0454C14.8281 47.0484 13.8134 48.0527 13.7925 49.2177C13.7702 50.4392 14.7626 51.4331 16.002 51.4302C17.231 51.4272 18.1624 50.5047 18.1728 49.2832L18.1713 49.2847ZM10.8659 44.0533C9.46286 44.0593 8.48384 45.016 8.46004 46.2063C8.43623 47.3653 9.45542 48.4113 10.6011 48.4336C11.0028 48.441 11.2394 48.3235 11.3569 47.9084C11.592 47.0782 11.8241 46.2405 12.1499 45.4445C12.4222 44.7794 12.1365 44.4655 11.5935 44.2497C11.3004 44.1337 10.982 44.0831 10.8644 44.0533H10.8659Z" fill="#878787"/>
<path d="M49.8747 40.8038C49.8747 41.4659 49.2513 42.1042 48.6011 42.1072C47.948 42.1102 47.3112 41.4793 47.3082 40.8202C47.3052 40.1581 47.9256 39.5243 48.5818 39.5213C49.2513 39.5183 49.8733 40.1358 49.8733 40.8024L49.8747 40.8038Z" fill="#878787"/>
<path d="M43.5543 37.2762C43.5691 38.0097 43.0558 38.5572 42.3446 38.5676C41.6126 38.578 41.0651 38.0662 41.0442 37.355C41.0234 36.6334 41.5456 36.0829 42.2643 36.068C43.0082 36.0517 43.5394 36.5501 43.5543 37.2762Z" fill="#878787"/>
<path d="M44.4128 39.6151C45.1508 39.6225 45.6864 40.1522 45.679 40.8679C45.6715 41.579 45.1151 42.1266 44.4053 42.1221C43.6927 42.1177 43.1407 41.5657 43.1422 40.8619C43.1436 40.1447 43.6897 39.6076 44.4128 39.6151Z" fill="#878787"/>
<path d="M51.8626 37.1854C51.8715 37.8996 51.3314 38.4769 50.641 38.4903C49.9432 38.5037 49.363 37.9398 49.3585 37.2449C49.354 36.5189 49.8792 35.9624 50.586 35.946C51.2808 35.9297 51.8536 36.4861 51.8626 37.1854Z" fill="#878787"/>
<path d="M49.7735 33.619C49.7825 34.3302 49.2439 34.8866 48.5312 34.9015C47.8244 34.9164 47.2591 34.3644 47.2576 33.6576C47.2576 32.9286 47.7858 32.3781 48.4925 32.3736C49.2022 32.3692 49.7646 32.9152 49.7735 33.6175V33.619Z" fill="#878787"/>
<path d="M11.5786 53.1546C11.7914 53.4596 12.0384 53.6649 12.0056 53.8063C11.9625 53.9982 11.7051 54.1411 11.5385 54.3062C11.4001 54.1411 11.1605 53.9804 11.1501 53.8078C11.1397 53.6396 11.3659 53.4581 11.5771 53.1561L11.5786 53.1546Z" fill="#878787"/>
<path d="M13.1022 52.3051C12.7882 52.5416 12.6052 52.7827 12.4178 52.7871C12.2586 52.7916 12.0919 52.5193 11.9297 52.369C12.0904 52.195 12.2273 51.9316 12.4222 51.8751C12.5561 51.8364 12.7719 52.0834 13.1022 52.3036V52.3051Z" fill="#878787"/>
<path d="M9.60569 52.3795C9.32895 52.5759 9.14594 52.8065 8.97186 52.8006C8.80522 52.7946 8.64899 52.5417 8.48682 52.3959C8.64899 52.2188 8.78885 51.9406 8.98079 51.9004C9.12065 51.8707 9.32746 52.1548 9.6042 52.3795H9.60569Z" fill="#878787"/>
<path d="M9.77975 54.4982C9.59377 54.1962 9.37803 53.9998 9.40183 53.8406C9.42713 53.6635 9.67262 53.5177 9.82141 53.3585C9.98656 53.5356 10.238 53.6933 10.2871 53.8986C10.3169 54.0206 10.0282 54.2185 9.77975 54.4997V54.4982Z" fill="#878787"/>
</svg>
