<svg width="102" height="74" viewBox="0 0 102 74" fill="none" xmlns="http://www.w3.org/2000/svg">
<path d="M13.8736 44.4277C14.2247 44.4972 14.3201 44.4892 14.3768 44.5328C17.5802 46.984 19.9812 49.9205 19.8566 54.2177C19.8097 55.8421 19.4926 57.4584 19.3098 59.0795C19.2791 59.3449 19.3049 59.6167 19.3049 59.8853L19.5606 59.9823C19.7628 59.7364 19.9893 59.5067 20.1624 59.2413C21.1316 57.7609 22.07 56.2579 23.0666 54.7969C23.264 54.5073 23.7089 54.1578 23.9791 54.2031C24.2784 54.2533 24.6408 54.6836 24.7411 55.0186C25.1133 56.2789 25.4174 57.5603 25.6892 58.8466C25.8656 59.683 25.9416 60.5421 26.1859 61.419C26.2377 61.2427 26.296 61.0663 26.3413 60.8884C26.7263 59.408 27.0726 57.9146 27.511 56.4504C27.6599 55.9553 27.9996 55.4942 28.3362 55.0881C28.5093 54.8778 28.9768 54.6448 29.1128 54.7322C29.3506 54.8843 29.5755 55.2855 29.5561 55.5654C29.5043 56.3388 29.3457 57.1073 29.1856 57.8677C28.993 58.7867 28.7423 59.6943 28.5449 60.6117C28.4688 60.9693 28.4688 61.343 28.4316 61.7459C29.734 61.9999 30.8391 60.7654 32.2062 61.4255C32.4408 60.6036 32.6964 59.7121 32.9456 58.8417C32.2499 58.3466 31.5882 57.9324 30.9944 57.4357C30.323 56.8743 30.179 56.0006 30.5576 55.3227C30.7808 54.9215 31.0187 54.7823 31.3018 55.2774C31.8487 56.2352 32.834 56.4278 33.7804 56.5556C34.1121 56.6009 34.4939 56.1689 34.8742 56.0071C35.5715 55.7126 36.2769 55.2596 36.992 55.2321C37.9676 55.1965 38.6051 56.1851 38.6261 57.3629C38.6374 58.0489 37.8188 58.9274 36.9774 59.1442C36.4727 59.2737 35.709 59.2704 35.5262 59.5908C35.1573 60.2363 35.0036 61.0534 34.9453 61.8154C34.8208 63.4495 34.8208 65.0933 34.7544 66.7323C34.7253 67.4393 34.4082 67.6302 33.7141 67.407C32.8647 67.1335 32.1933 66.132 32.169 65.0594C32.1512 64.2617 32.1658 63.4641 32.1658 62.6681C32.0477 62.6001 31.9312 62.5338 31.8131 62.4658C31.7257 62.6487 31.6691 62.859 31.5445 63.0111C30.8747 63.8281 30.0058 64.3459 28.9833 64.5869C27.8265 64.8587 27.2473 64.5837 26.6551 63.5385C26.5386 63.3314 26.4092 63.1324 26.1099 62.9464C26.0856 63.3751 26.105 63.8136 26.0193 64.2294C25.9659 64.485 25.7896 64.8442 25.5922 64.9057C25.3851 64.9688 24.979 64.8037 24.8463 64.6112C24.5357 64.1582 24.2703 63.6485 24.115 63.1227C23.9823 62.6762 23.8982 62.2507 23.3449 62.2717C22.6637 62.2976 21.8321 61.9093 21.4001 62.7846C21.1283 63.3363 21.0135 63.9673 20.7206 64.5028C20.5426 64.8296 20.0832 65.3101 19.8825 65.2535C19.4586 65.1338 18.873 64.7536 18.8034 64.3944C18.674 63.7197 18.8616 62.9852 18.9231 62.2749C18.9587 61.8607 19.0056 61.4465 19.0477 61.0324C18.9474 61 18.8487 60.9693 18.7484 60.9369C18.5235 61.2119 18.2581 61.4643 18.0818 61.7669C17.1612 63.3541 15.7876 64.4543 14.2457 65.3716C11.7056 66.8827 8.9082 66.4734 6.97317 64.2552C6.57355 63.7974 6.24188 63.7262 5.67884 63.854C2.53199 64.5659 0.0452528 62.5564 0.001569 59.3416C-0.0485864 55.5331 1.10337 52.1112 3.50921 49.2005C4.40392 48.1181 5.72576 47.3788 6.89228 46.5374C7.12202 46.3724 7.53783 46.463 7.86626 46.4355C7.78051 46.772 7.78051 47.1733 7.58798 47.4321C7.20615 47.9466 6.69975 48.3657 6.27585 48.8511C3.67262 51.828 2.70673 55.4133 2.49316 59.2527C2.45919 59.8529 2.59833 60.4871 2.77306 61.0696C3.02869 61.9174 3.60629 62.4966 4.52203 62.6567C5.585 62.8428 5.89564 62.4998 5.78562 61.4417C5.65134 60.1603 5.53161 58.8724 5.52999 57.5862C5.52999 55.4878 6.43926 53.7986 8.12351 52.5512C9.14118 51.7973 10.3223 51.5595 11.4823 52.0594C12.5647 52.5253 12.6537 53.6676 12.7637 54.6756C13.0177 56.9908 12.2217 58.9501 10.6038 60.6004C10.1346 61.0793 9.69289 61.5857 9.24149 62.0824C8.8354 62.5289 8.95512 62.8865 9.41461 63.2165C10.408 63.9284 11.4354 63.8103 12.4725 63.3589C14.1551 62.6276 15.2019 61.254 15.8928 59.6507C17.9621 54.839 17.8343 50.1907 14.6534 45.8272C14.3816 45.4534 14.1956 45.0166 13.872 44.4293L13.8736 44.4277ZM9.70907 53.0576C8.31604 55.2273 8.36782 57.5393 8.35973 59.9823C10.2025 58.5294 11.0228 54.4491 9.70907 53.0576ZM23.7672 58.5764L23.3271 58.4615L22.9841 59.7542C23.1475 59.7817 23.4484 59.8497 23.4549 59.8286C23.5795 59.4177 23.6701 58.9954 23.7688 58.5764H23.7672Z" fill="#878787"/>
<path d="M37.6958 47.8933C38.2928 48.5663 37.9951 48.8252 37.3706 48.8851C37.0567 48.9158 36.7186 48.9045 36.4176 48.8187C35.9614 48.6877 35.7915 48.3835 35.9824 47.8852C36.3966 46.7996 37.267 46.3724 38.3171 46.1346C41.8134 45.3418 45.2191 45.8935 48.5698 46.8885C53.1162 48.2379 57.169 50.435 60.2269 54.1708C60.9048 54.9975 61.4533 55.9343 62.0196 56.8468C63.8672 59.8206 62.3626 63.1357 59.9324 64.6953C56.9118 66.6336 53.587 66.8731 50.1489 66.5236C49.3998 66.4475 48.7041 66.1838 48.1184 67.0688C47.6363 67.7969 46.2028 67.3989 46.0895 66.5252C45.9488 65.4396 45.3809 64.8749 44.4409 64.3863C42.8392 63.5531 41.4121 62.4383 40.2861 61.0016C39.2862 59.7251 39.4221 58.7042 40.8879 57.9907C42.2518 57.3273 43.7306 56.8808 45.19 56.4423C45.808 56.2563 46.041 56.0071 46.1073 55.368C46.2141 54.3293 46.4423 53.3004 46.6607 52.2746C46.7108 52.0416 46.9292 51.6743 47.0749 51.6727C47.3111 51.6695 47.6444 51.8604 47.7689 52.0691C48.0116 52.4752 48.1815 52.9379 48.3029 53.399C48.4177 53.8375 48.4436 54.3018 48.4889 54.7565C48.6184 56.0864 48.6151 56.0621 49.9709 56.1074C51.5937 56.1608 53.1776 56.4359 54.6435 57.1785C54.9994 57.3581 55.3456 57.5765 55.6514 57.8321C56.5203 58.5602 56.8131 59.5487 56.4054 60.2412C55.8634 61.1602 54.7179 61.5242 53.4753 61.0825C53.7941 60.6651 54.0885 60.2817 54.3992 59.8756C54.3247 59.7785 54.2811 59.6539 54.1985 59.6216C52.5693 58.9679 50.8948 58.489 49.1248 58.502C48.9241 58.502 48.5553 58.8158 48.5536 58.9873C48.5407 60.6247 48.5763 62.2636 48.6459 63.9009C48.6523 64.0676 48.9678 64.341 49.1604 64.3604C51.9593 64.6517 54.7551 64.8183 57.3616 63.4269C59.9891 62.0242 60.6492 59.7672 59.2659 57.1154C57.9877 54.6659 55.9847 52.9493 53.6727 51.5579C49.2914 48.9206 44.5881 47.4289 39.414 47.7007C39.037 47.7202 38.6617 47.7444 38.2863 47.7784C38.1278 47.793 37.9725 47.8383 37.6958 47.8949V47.8933ZM46.007 58.6362C44.2419 58.4664 42.7081 58.7641 41.2115 59.2721C40.4285 59.5374 40.3281 59.9597 41.0028 60.4645C42.2632 61.4077 43.598 62.2555 44.9279 63.1033C45.3631 63.3816 45.7142 63.2279 45.7514 62.6568C45.8371 61.3527 45.9164 60.0471 46.0054 58.6362H46.007Z" fill="#878787"/>
<path d="M27.456 33.9517C28.0854 33.1072 28.5659 32.4018 29.1225 31.7611C29.2729 31.5879 29.6515 31.5588 29.9266 31.5572C38.4093 31.52 46.8921 31.4763 55.3748 31.4715C61.0294 31.4682 66.684 31.5232 72.3403 31.554C73.29 31.5588 74.641 32.6865 74.772 33.6346C74.7914 33.777 74.5099 34.0909 74.3449 34.107C73.7042 34.1718 73.0554 34.1588 72.4082 34.1588C66.9413 34.1588 61.4744 34.1604 56.0074 34.1329C55.5819 34.1313 55.0998 33.9905 54.7422 33.7624C52.5612 32.3662 50.4175 32.3856 48.2236 33.7398C47.7949 34.0035 47.2286 34.1653 46.7238 34.1653C40.8799 34.1782 35.036 34.1556 29.192 34.1297C28.6873 34.1281 28.1825 34.0294 27.456 33.9533V33.9517Z" fill="#878787"/>
<path d="M70.08 28.1499C70.271 28.0123 70.381 27.9428 70.4813 27.8586C71.3582 27.137 71.6381 27.2147 72.0717 28.31C72.295 28.8747 72.5118 29.4426 72.8127 30.2208H35.6297C35.7511 29.4232 35.8368 28.5527 36.0472 27.713C36.0925 27.5334 36.5892 27.3652 36.8771 27.3636C42.5819 27.3425 48.2867 27.3458 53.9915 27.3474C58.5394 27.3474 63.0874 27.3377 67.6354 27.3668C68.4864 27.3716 69.4523 27.1387 70.08 28.1499Z" fill="#878787"/>
<path d="M36.0002 24.008H41.9655C41.8457 24.372 41.705 24.6519 41.6759 24.9415C41.6548 25.1502 41.7843 25.3751 41.8474 25.5919C42.0383 25.5304 42.2454 25.4981 42.4136 25.3994C42.5447 25.3217 42.6806 25.1777 42.7227 25.0354C43.0349 23.9562 43.8584 23.9789 44.758 23.9853C50.466 24.0339 56.1756 24.0501 61.8837 24.0792C63.2929 24.0856 63.2929 24.0921 63.7669 25.3962C63.9012 25.7667 64.0403 26.1355 64.2183 26.6161C63.8624 26.6436 63.6084 26.6792 63.3543 26.6808C54.6564 26.6921 45.9569 26.6873 37.259 26.7245C36.4468 26.7277 36.1507 26.5158 36.2008 25.6906C36.2332 25.1486 36.0763 24.5937 35.9986 24.008H36.0002Z" fill="#878787"/>
<path d="M96.5864 56.7238C96.4278 57.316 96.3404 57.9405 96.0929 58.4938C95.6302 59.5309 95.0752 60.5259 94.5575 61.5388C94.6465 61.597 94.7338 61.6552 94.8228 61.7135C95.0655 61.4935 95.3131 61.2767 95.5493 61.0501C96.4796 60.1571 97.4034 59.2559 98.3369 58.366C99.0116 57.7237 99.8384 57.1801 100.722 57.6428C101.586 58.0958 101.883 59.0682 101.979 60.0406C102.256 62.8719 99.7672 65.4978 97.2254 65.9087C95.8114 66.1385 95.1221 66.7695 94.8212 68.1107C94.4701 69.6817 93.9783 71.2204 93.5738 72.7784C93.3457 73.6586 92.98 73.7832 92.3021 73.191C91.4203 72.4209 91.2909 71.4145 91.532 70.3855C91.909 68.766 92.4364 67.1821 92.8247 65.5658C92.9735 64.9461 92.8959 64.2747 92.9541 63.6291C93.0431 62.6276 92.9315 61.5274 93.3166 60.6505C93.878 59.374 94.7937 58.2511 95.5865 57.0814C95.7369 56.8581 96.0266 56.7287 96.2515 56.5572C96.3631 56.6122 96.4747 56.6672 96.588 56.7206L96.5864 56.7238ZM97.1364 63.6453C99.518 63.1648 101.272 60.822 100.152 59.5212C98.8822 60.6424 97.9114 61.961 97.1364 63.6453Z" fill="#878787"/>
<path d="M69.0785 59.1524C70.1253 59.3158 71.1786 59.4549 72.2189 59.6507C73.0812 59.8141 73.9841 59.9257 74.7768 60.2719C76.3818 60.9725 76.5921 63.4123 75.1587 64.4251C74.6474 64.7859 74.0213 65.0853 73.4113 65.1839C71.5604 65.4816 69.716 65.5464 68.1029 64.2941C67.5189 63.8411 67.0852 63.3428 67.2357 62.537C67.3813 61.7556 67.8926 61.343 68.6174 61.1327C68.7792 61.0858 68.9345 61.0081 69.2791 60.8706C68.7954 60.7767 68.5187 60.7217 68.2421 60.6683C67.6014 60.5438 66.9315 60.4143 66.7503 59.6652C66.5384 58.7899 66.9898 57.8321 67.7421 57.3743C69.2808 56.4407 70.9893 56.2935 72.7221 56.3453C73.5504 56.3695 74.3901 56.4666 75.1959 56.6543C75.5777 56.7433 75.8916 57.1251 76.2362 57.3743C75.8964 57.6267 75.5858 58.036 75.2137 58.0991C73.9986 58.3062 72.7625 58.3774 71.5361 58.5197C70.7175 58.6152 69.902 58.7398 69.085 58.8514C69.0834 58.9517 69.0818 59.052 69.0801 59.1524H69.0785ZM71.2417 63.1098C69.9587 62.2863 68.8051 62.1277 68.276 62.7037C68.873 63.4269 70.0153 63.5838 71.2417 63.1098ZM73.3061 62.8315C73.7009 62.5807 74.0051 62.3866 74.3109 62.194C74.319 62.0873 74.327 61.9821 74.3351 61.8753C73.5132 61.5711 72.6913 61.267 71.6704 60.8868C72.2092 61.7669 73.8481 61.1262 73.3078 62.8315H73.3061Z" fill="#878787"/>
<path d="M51.8623 15.3974C51.9917 15.5543 52.1212 15.7129 52.393 16.0446C52.8363 15.5058 53.223 15.0059 53.6468 14.5415C53.7828 14.3943 54.0206 14.2632 54.2147 14.2584C55.3974 14.2325 56.5817 14.2438 57.7644 14.2487C57.8971 14.2487 58.1058 14.2325 58.1495 14.3053C58.554 14.9573 59.1057 15.5867 59.2707 16.3018C59.4649 17.1415 59.316 18.0605 59.316 19.0733C55.001 19.0474 50.7362 19.1121 46.3355 18.8193C46.8581 17.3502 47.2868 16.0947 47.7625 14.857C47.8579 14.6095 48.167 14.2374 48.3158 14.2632C48.5731 14.3085 48.8869 14.5787 48.9937 14.8328C49.416 15.8359 49.7655 16.8697 50.1732 17.9764C51.1472 17.4473 51.0549 16.1756 51.8607 15.399L51.8623 15.3974Z" fill="#878787"/>
<path d="M47.1007 19.5151C48.9937 19.5151 50.8689 19.5037 52.744 19.5183C54.7616 19.5345 56.7775 19.5879 58.7951 19.5943C59.3047 19.596 59.5619 19.7416 59.6865 20.2739C59.9049 21.2074 60.2172 22.1183 60.557 23.2622C59.2934 23.2622 58.1722 23.2719 57.0526 23.2605C53.9057 23.2298 50.7589 23.178 47.612 23.1618C47.0554 23.1586 46.8273 22.9984 46.8872 22.4176C46.9826 21.4873 47.0279 20.5538 47.1024 19.5151H47.1007Z" fill="#878787"/>
<path d="M78.7747 60.6052C78.6259 61.9886 78.5207 63.1227 78.3735 64.252C78.3007 64.8021 78.2489 65.4865 77.4788 65.4606C76.7151 65.4364 76.4611 64.8393 76.4384 64.1647C76.3656 62.05 76.6391 59.984 77.461 58.0214C77.9156 56.9374 78.4964 56.8484 79.2148 57.7739C79.9202 58.6832 80.5318 59.6669 81.1935 60.6101C81.5122 61.0631 81.852 61.5016 82.182 61.9465C82.2743 61.9174 82.3681 61.8899 82.4603 61.8608C82.3665 61.1214 82.3212 60.3723 82.1707 59.6442C81.9491 58.5667 81.6158 57.5134 81.4103 56.4343C81.344 56.0913 81.5333 55.6981 81.6045 55.3292C81.9151 55.491 82.3147 55.5784 82.5202 55.8259C84.2044 57.8516 84.8516 60.2024 84.507 62.7991C84.4374 63.3282 84.1511 63.8815 83.8178 64.3103C83.0719 65.2713 82.072 65.2859 81.3262 64.3281C80.6369 63.4415 80.0658 62.4626 79.4381 61.5275C79.2698 61.2767 79.0854 61.0372 78.7731 60.6052H78.7747Z" fill="#878787"/>
<path d="M87.4532 63.3897C88.5923 63.3201 89.6633 63.2069 90.7311 63.2182C91.0385 63.2214 91.477 63.5191 91.6048 63.7974C91.697 63.998 91.4543 64.506 91.2165 64.6743C90.0419 65.5092 88.7314 66.0592 87.2817 66.2C86.0958 66.3149 84.994 65.4865 85.0264 64.3167C85.0603 63.0968 85.3257 61.8785 85.5587 60.6732C85.6023 60.4499 85.9858 60.2995 86.1977 60.0988C86.8837 59.4484 86.8514 59.0553 86.099 58.5473C85.9017 58.4146 85.7156 58.2512 85.5603 58.0716C85.1833 57.6364 85.2933 57.2934 85.8547 57.2384C87.7752 57.0491 89.7005 56.8064 91.6226 56.8145C92.0918 56.8161 92.5561 57.7027 93.0221 58.1816C92.7422 58.4016 92.485 58.7641 92.1759 58.8158C91.3589 58.9517 90.5192 58.9501 89.6892 59.01C89.4773 59.0245 89.1957 58.9889 89.0695 59.1071C88.8786 59.285 88.7557 59.5698 88.6974 59.8303C88.6829 59.895 89.0242 60.0972 89.2216 60.1344C89.6957 60.225 90.1794 60.2687 90.6599 60.3043C91.1291 60.3399 91.4074 60.6052 91.2893 61.0308C91.21 61.3155 90.9156 61.6795 90.6519 61.7475C90.0872 61.8915 89.4821 61.8785 88.8916 61.9061C87.7639 61.9578 87.6021 62.1067 87.4532 63.3897Z" fill="#878787"/>
<path d="M61.5471 52.4283C61.5957 50.5855 62.6538 49.5985 63.9546 48.8737C65.689 47.9062 67.4104 47.6522 69.2435 48.8931C71.2384 50.2441 71.3857 51.2423 69.6189 52.9282C68.1498 54.3309 66.5141 55.1852 64.4173 55.004C64.05 54.9716 63.6472 55.1625 63.288 55.313C62.8981 55.4764 62.5001 55.5767 62.3367 55.1092C62.0131 54.1772 61.7736 53.2162 61.5455 52.4283H61.5471ZM64.7878 53.1482C66.5805 53.344 67.8894 52.8344 68.9701 51.7762C69.2177 51.5336 69.2193 51.0417 69.3342 50.6647C68.8957 50.5628 68.3602 50.2473 68.0382 50.3962C66.7924 50.9705 65.8265 51.9316 64.7894 53.1466L64.7878 53.1482Z" fill="#878787"/>
<path d="M51.9545 7.35474C52.16 8.08118 51.7199 8.10222 51.2491 8.10707C48.3821 8.13619 45.554 8.47919 42.8165 9.34478C34.4244 11.9965 28.1291 17.2548 23.7833 24.8541C21.3063 29.1853 19.8777 33.8595 19.5363 38.8524C19.4991 39.3879 19.4149 39.9234 19.4311 40.4557C19.4473 41.0171 19.2321 41.1919 18.7112 41.0462C18.1336 24.6729 32.9181 6.64124 51.9545 7.35474Z" fill="#878787"/>
<path d="M45.4974 38.9349C45.6657 39.6435 45.8404 40.3878 46.0265 41.1757H28.4947C28.6662 40.4331 28.8232 39.7455 29.0108 38.9349H45.499H45.4974Z" fill="#878787"/>
<path d="M56.8099 41.119C57.0218 40.3667 57.2322 39.6257 57.47 38.7827C57.7062 38.7827 57.9958 38.7827 58.2854 38.7827C62.9159 38.7892 67.5448 38.8183 72.1752 38.7827C73.0052 38.7763 73.4388 38.9785 73.4857 39.8409C73.5068 40.234 73.6136 40.6239 73.6993 41.119H56.8115H56.8099Z" fill="#878787"/>
<path d="M29.04 37.482V35.2768H46.5119C46.2498 35.9871 46.0038 36.707 45.7094 37.4044C45.6641 37.5111 45.3955 37.571 45.2305 37.571C39.9091 37.5759 34.5878 37.571 29.2665 37.5629C29.2163 37.5629 29.1678 37.5289 29.0384 37.4804L29.04 37.482Z" fill="#878787"/>
<path d="M56.2792 35.2687H73.1622C73.2366 36.0113 73.3078 36.7167 73.3903 37.5224C73.0424 37.5451 72.7593 37.5807 72.4762 37.5807C67.6095 37.5645 62.7444 37.537 57.8777 37.5338C57.3454 37.5338 57.0315 37.4173 56.8892 36.8526C56.7613 36.3397 56.5122 35.8592 56.2792 35.2687Z" fill="#878787"/>
<path d="M83.6819 41.022C83.0978 41.1724 82.9231 40.9928 82.915 40.48C82.7839 32.6056 80.1613 25.5854 75.4321 19.3597C71.5928 14.3069 66.7973 10.4676 60.6605 8.49051C60.5845 8.46624 60.4777 8.46947 60.4324 8.41932C60.2787 8.24458 60.1444 8.05205 60.0037 7.86761C60.2269 7.79804 60.4939 7.6136 60.6638 7.67993C62.1895 8.27371 63.7491 8.80924 65.2004 9.5551C71.0201 12.5434 75.3205 17.1124 78.6259 22.6829C81.4702 27.4735 83.0784 32.6687 83.6819 38.1874C83.7579 38.8798 83.7094 39.5853 83.7126 40.2842C83.7126 40.522 83.6916 40.7599 83.6786 41.0252L83.6819 41.022Z" fill="#878787"/>
<path d="M55.9492 13.6549C55.789 13.6549 55.6272 13.663 55.467 13.6549C54.9347 13.6226 54.2811 13.7568 53.909 13.4947C53.6177 13.2893 53.6905 12.5855 53.5757 12.1082C53.5012 11.7975 53.3168 11.5015 53.2925 11.1924C53.2634 10.7944 53.3249 10.3835 53.388 9.98548C53.4204 9.78162 53.6355 9.58423 53.6161 9.39979C53.5093 8.39668 54.1533 8.32226 54.8781 8.32388C55.7906 8.3255 56.7031 8.32711 57.614 8.33035C58.1398 8.33197 58.554 8.42257 58.5653 9.1118C58.5702 9.41112 58.8193 9.69749 58.9002 10.0065C58.9714 10.2783 59.0248 10.5825 58.9779 10.8527C58.8582 11.5468 58.6187 12.2231 58.5394 12.9204C58.4812 13.43 58.2757 13.6468 57.7952 13.6501C57.1788 13.6549 56.5623 13.6501 55.9459 13.6501V13.6533L55.9492 13.6549Z" fill="#878787"/>
<path d="M59.3548 7.82388H52.7861C53.8976 5.43907 54.9444 3.19178 56.098 0.713135C57.2095 3.13839 58.2401 5.38892 59.3548 7.82388Z" fill="#878787"/>
<path d="M63.5922 62.1795C63.7362 60.6829 63.8802 59.1879 64.0274 57.6914C64.0371 57.5846 64.0371 57.4584 64.0953 57.3807C64.3283 57.0604 64.5823 56.753 64.8266 56.4423C65.0871 56.7724 65.5466 57.0879 65.5741 57.4357C65.7521 59.7073 65.8556 61.9853 65.9398 64.2633C65.9624 64.8701 65.8297 65.4654 64.9965 65.4913C64.2167 65.5156 63.8316 65.2389 63.7378 64.3604C63.6617 63.6437 63.7216 62.9124 63.7216 62.1875C63.6779 62.1843 63.6342 62.1827 63.5922 62.1795Z" fill="#878787"/>
<path d="M41.1792 23.1812H36.3432C36.9451 21.9678 37.4208 20.8999 37.9984 19.8887C38.3139 19.3338 39.1924 19.2998 39.5758 19.8645C40.2424 20.8449 40.7763 21.916 41.3652 22.9482C41.3038 23.0259 41.2407 23.1036 41.1792 23.1812Z" fill="#878787"/>
<path d="M62.4079 23.2816C61.2009 23.2735 60.6994 22.6134 61.0019 21.4193C61.1006 21.031 61.2284 20.6492 61.3255 20.2609C61.4226 19.8742 61.4371 19.4552 62.0358 19.5118C62.5341 19.5604 62.9806 19.5604 63.0906 20.2237C63.1861 20.7997 63.4466 21.3482 63.5534 21.9241C63.754 23.0178 63.5032 23.2897 62.4079 23.2816Z" fill="#878787"/>
<path d="M65.5208 26.7617C65.7958 25.9188 65.9091 25.1098 66.3216 24.5031C66.5206 24.2102 67.2794 24.2523 67.7858 24.2442C67.9428 24.241 68.1903 24.5452 68.2518 24.7506C68.9685 27.1662 69.0866 26.8394 66.7746 26.8604C66.4106 26.8636 66.0466 26.8054 65.5224 26.7617H65.5208Z" fill="#878787"/>
<path d="M33.253 30.4181H29.9201C30.2825 29.4312 30.5203 28.551 30.9313 27.7615C31.1578 27.3263 31.716 27.3521 31.9813 27.823C32.423 28.6076 32.7806 29.4425 33.253 30.4181Z" fill="#878787"/>
<path d="M45.9698 23.2249C45.2369 23.2249 44.6917 23.2524 44.1513 23.2055C44.0251 23.1942 43.8035 22.9094 43.8261 22.7864C44.0008 21.772 44.2241 20.7657 44.4328 19.7577C44.5331 19.7431 44.6351 19.727 44.7354 19.7124C45.1269 20.8271 45.5184 21.9403 45.9698 23.2265V23.2249Z" fill="#878787"/>
<path d="M67.8635 23.1294C66.6646 23.4271 66.5125 23.3009 66.7325 22.2202C66.8231 21.7785 66.9882 21.3514 67.1208 20.9161C67.1953 20.9242 67.2697 20.9339 67.3441 20.942C67.5172 21.6717 67.6903 22.3998 67.8635 23.1278V23.1294Z" fill="#878787"/>
<path d="M62.6279 19.0248H61.7365C61.8416 18.6252 61.9306 18.2886 62.0827 17.7126C62.3076 18.253 62.4402 18.5718 62.6279 19.0248Z" fill="#878787"/>
</svg>
