<svg width="82" height="63" viewBox="0 0 82 63" fill="none" xmlns="http://www.w3.org/2000/svg">
<path d="M11.5336 22.3021C6.1923 15.7151 6.03759 9.19728 10.7804 4.36083C15.0917 -0.0318775 22.0166 -0.475626 26.8938 3.33084C32.4671 7.68283 32.748 13.7935 27.6632 22.123C28.05 22.1515 28.3594 22.1881 28.6728 22.1881C30.6229 22.1922 32.5729 22.1881 34.8812 22.1881C33.2894 19.5704 32.5119 16.9527 33.7861 14.3309C34.466 12.9305 35.553 11.5585 36.7987 10.6344C39.5467 8.59068 43.4305 8.94894 46.0319 11.1677C49.0893 13.7691 49.4883 17.0219 47.2533 22.294C49.8303 22.294 52.3014 22.294 54.7726 22.294C57.0117 22.294 58.1353 23.4447 58.1434 25.7462C58.1475 28.1726 58.1434 30.599 58.1434 33.6116C59.9144 33.1882 61.4939 33.0579 62.8577 32.4473C68.6061 29.8825 74.2894 27.1752 80.0011 24.5249C80.5914 24.2522 81.2021 24.0242 82 23.6985V60.8553C77.3671 58.7139 72.9133 56.658 68.4636 54.594C66.6846 53.7675 64.9462 52.8393 63.1224 52.1228C61.6812 51.5569 60.1423 51.2435 58.1475 50.6776C58.1475 53.792 58.1475 56.3283 58.1475 58.8686C58.1448 61.0534 57.0619 62.1472 54.8988 62.1499C37.3524 62.1499 19.8019 62.1336 2.25555 62.1865C0.623049 62.1906 -0.0120407 61.7998 0.000172536 60.0574C0.0612388 48.4141 0.0245991 36.7667 0.0408834 25.1193C0.0449545 22.3265 0.0897366 22.3184 2.87843 22.3021C5.63456 22.2858 8.38661 22.3021 11.5376 22.3021H11.5336ZM37.3565 32.3577C39.62 33.1393 40.9879 34.78 41.5863 36.8115C43.2066 42.3074 47.1637 46.1505 50.7096 50.303C51.0272 50.6735 51.5198 50.8893 52.0897 51.2923C52.794 49.0369 53.421 47.038 54.1049 44.86C54.5324 46.1057 54.8866 47.1479 55.2448 48.1861C55.5705 41.3914 55.5746 34.6375 55.5705 27.8836C55.5705 25.2821 55.2896 24.9239 52.6963 24.8954C48.499 24.8425 44.3017 24.9035 40.1085 24.8995C28.4652 24.8913 16.826 24.8954 5.18267 24.8384C3.31404 24.8302 2.55274 25.3961 2.58938 27.4072C2.70745 33.7622 2.57717 40.1253 2.68302 46.4844C2.70745 47.9215 3.26926 49.3586 3.66822 50.7712C3.75371 51.0684 4.20561 51.4144 4.51094 51.4389C4.7267 51.4552 5.08903 50.9951 5.19488 50.6857C5.78926 48.9637 6.32257 47.2172 6.90881 45.3892C7.27113 46.3134 7.56832 47.0665 7.82887 47.726C9.55908 45.6457 11.0898 43.6835 12.759 41.8433C14.6113 39.7996 15.6983 39.8526 17.6443 41.7334C18.3648 42.4296 19.2035 43.0036 20.1561 43.7689C20.9256 41.3792 21.5403 39.4577 22.2242 37.3366C22.5581 38.102 22.782 38.6068 22.9733 39.0465C24.6628 36.6568 26.1447 34.2222 27.9645 32.0809C29.9186 29.7766 31.3353 29.9598 33.2732 32.2763C33.9734 33.1149 34.7428 33.8966 35.6263 34.8614C36.3305 33.8518 36.7824 33.2045 37.3687 32.3618L37.3565 32.3577ZM49.6145 59.8742C49.8181 59.7602 50.0175 59.6421 50.2211 59.5281C50.1845 56.4789 49.3051 53.6617 47.697 51.0236C46.0849 48.3774 44.5094 45.7068 42.9583 43.028C42.1237 41.5868 41.3665 40.105 40.3243 38.1793C38.932 40.3492 37.6537 42.0143 36.7743 43.8748C36.4038 44.6564 36.5137 46.2849 37.0633 46.7449C38.2725 47.7586 38.3987 48.7805 38.187 50.1321C38.0526 50.9951 37.9793 51.903 38.0974 52.762C38.3905 54.9034 40.3935 54.7772 41.8347 55.2453C42.1318 55.343 42.7914 54.3212 43.284 53.8164L43.5771 53.1854C45.5923 55.4163 47.6034 57.6432 49.6186 59.8742H49.6145ZM16.4718 42.5598C12.702 45.0676 13.7238 48.4303 14.0536 51.6587C14.1513 52.6276 14.1798 53.6006 14.2449 54.6998C15.6942 52.7335 16.9522 51.0033 18.2386 49.2893C19.46 47.6609 19.5414 46.1058 18.1002 44.5465C17.4204 43.8097 16.826 42.9954 16.4718 42.5598ZM27.0159 7.20244C24.2923 3.94557 21.0151 2.73239 17.1517 3.66874C13.2597 4.61323 10.8048 7.23908 10.0924 11.188C9.4166 14.9294 10.7723 17.999 14.078 20.747C10.6135 15.1288 10.6176 11.0293 13.8093 7.62991C17.054 4.17763 20.7994 4.02293 27.0118 7.20244H27.0159ZM30.0448 44.3552C31.2498 41.9166 32.288 39.7711 33.3709 37.6501C34.6044 35.2237 34.1199 33.8681 31.4982 32.6712C30.9119 34.2426 30.2972 35.8018 29.7476 37.3855C29.5318 38.0084 29.312 38.6964 29.3608 39.3355C29.4708 40.8052 29.7476 42.2626 30.0448 44.3552ZM45.0915 12.9182C43.4224 10.5367 39.0704 10.4145 36.7214 12.7717C34.2706 15.2306 34.2747 18.8295 37.0063 21.5286C35.4715 18.7033 35.268 16.1181 37.3727 13.8424C39.5508 11.4852 42.2051 11.5382 45.0875 12.9182H45.0915Z" fill="#878787"/>
</svg>
