<svg width="112" height="71" viewBox="0 0 112 71" fill="none" xmlns="http://www.w3.org/2000/svg">
<path d="M25.8249 60.2213C25.8249 45.9043 25.8277 31.5902 25.8194 17.2733C25.8194 16.3324 26.2238 15.1824 24.4163 14.9788C24.5567 14.8522 24.6997 14.7257 24.84 14.6019C25.6021 14.7945 26.4412 14.8385 27.1097 15.2016C30.5569 17.0697 34.2049 18.6928 37.3219 21.0175C41.3001 23.9833 44.8491 27.524 48.5576 30.8446C49.3582 31.5599 49.3086 31.6177 49.9992 30.8061C50.687 31.6452 51.2014 32.8199 52.068 33.1968C53.141 33.6645 54.5 33.4967 55.7381 33.5572C56.5166 33.593 57.386 33.3151 58.0628 33.5765C59.6859 34.201 62.0602 32.952 62.3903 31.0317C61.9831 31.0675 61.6007 31.1032 61.1468 31.1417C60.8799 30.2504 59.741 29.6121 60.426 28.3961C60.536 28.2008 60.371 27.6918 60.1701 27.513C58.9899 26.462 59.8565 25.733 60.5718 25.0755C61.7851 23.9613 63.3037 23.5458 64.8993 23.7632C66.0796 23.9227 66.8306 24.7784 67.081 25.9448C67.3616 27.2599 67.5789 28.6052 66.0356 29.3948C68.2805 31.2683 69.0618 33.6838 68.9132 36.5175C71.3755 35.0208 73.8295 26.4455 73.2986 21.2459C72.1018 9.49853 64.9103 3.24245 53.7765 0.342749C61.2926 -0.801725 67.8293 0.920488 73.5187 5.50113C84.3801 14.2442 86.3004 29.7387 77.7472 40.735C72.8831 46.9883 66.1539 50.0613 58.2801 50.6583C57.6886 50.7023 57.0889 50.6776 56.4946 50.7051C55.8894 50.7353 55.5675 50.8564 55.5537 51.6735C55.5372 52.5648 55.1658 53.481 53.8948 53.4727C52.8851 53.4645 51.5068 55.7011 51.7902 57.0327C52.046 58.2212 51.7434 58.6559 50.5246 58.8209C49.7048 58.9337 48.9152 59.4344 48.1614 59.8526C46.8876 60.5597 45.9578 60.0314 44.9894 59.1648C48.2467 58.3615 49.8369 56.034 50.8548 53.2251C51.0446 52.6996 50.7227 51.9871 50.3101 51.3653C50.5687 50.9967 50.8273 50.628 51.0969 50.2484C48.3843 48.804 45.7129 47.3817 43.0388 45.9566L43.1709 45.6925C44.5437 46.0887 45.8972 46.5894 47.2948 46.8342C47.9138 46.9415 48.6346 46.5701 49.2839 46.3445C50.057 46.0777 50.8713 45.8356 51.5398 45.3899C52.2386 44.9222 52.8549 44.2784 53.3556 43.6016C53.5151 43.387 53.3115 42.6855 53.0529 42.4297C52.4532 41.8409 52.4064 40.8505 52.9869 40.2287C53.4876 39.6923 53.87 39.043 54.3047 38.4433C54.1259 38.2892 53.9443 38.1324 53.7655 37.9783C53.4133 38.3002 53.0612 38.6221 52.5165 39.12C52.101 38.5175 51.6141 37.827 51.1492 37.1227C51.0639 36.9962 50.9923 36.7155 51.0529 36.6605C51.9607 35.8379 51.1161 35.2024 50.753 34.6467C49.9469 33.4169 49.0968 32.1872 48.0871 31.1252C42.1447 24.8719 35.4457 19.6227 27.5802 15.9555C27.1427 15.7519 26.664 15.6336 26.0368 15.419V60.301C25.9652 60.279 25.8965 60.257 25.8249 60.235V60.2213ZM58.9651 43.5439C58.4892 41.9977 58.049 40.5561 57.6061 39.1173C57.4658 39.1283 57.3227 39.142 57.1824 39.153V43.3403H55.5675V44.9387C56.7945 44.4352 57.8647 43.9951 58.9651 43.5439ZM54.7752 35.7251C53.5977 35.2327 52.599 34.8145 51.6031 34.3963C51.5233 34.5091 51.4463 34.6219 51.3665 34.7347C51.9112 35.2684 52.4284 35.8324 53.0144 36.3194C53.3226 36.5752 53.8095 36.8944 54.1039 36.8063C54.39 36.721 54.5303 36.1543 54.7779 35.7251H54.7752ZM60.6516 36.9824C61.2403 37.882 61.6943 38.5781 62.1482 39.2741C62.3133 39.2136 62.4756 39.153 62.6407 39.0925C62.5829 38.2672 62.5224 37.4391 62.4563 36.4762C61.7575 36.6743 61.3366 36.7898 60.6543 36.9824H60.6516Z" fill="#878787"/>
<path d="M84.2784 65.6107C84.0032 64.8129 83.7309 64.0151 83.4998 63.3438C85.4641 63.3438 87.7393 63.3273 90.0117 63.3576C90.4079 63.3631 90.8756 63.4594 91.1782 63.6877C91.5826 63.9958 92.0971 64.4608 92.1246 64.8844C92.1494 65.3081 91.6954 65.8281 91.3323 66.1857C91.0296 66.4829 90.5537 66.6012 89.9127 66.9203C90.8838 67.9134 91.7037 68.8791 92.6583 69.6852C93.4864 70.384 94.298 70.0126 94.3558 68.9286C94.4328 67.4705 94.4411 65.9987 94.3338 64.5406C94.3008 64.0839 93.8 63.6602 93.5194 63.2365H98.0478C96.8511 63.9986 96.796 64.1829 97.0821 66.758C98.3697 65.7758 99.5252 64.89 101.124 63.6684C100.584 63.5804 100.273 63.5309 99.9626 63.4786C100.045 63.3961 100.125 63.3108 100.207 63.2283H103.869C102.433 64.0123 100.92 64.8377 99.1317 65.8143C100.95 67.4678 102.318 69.135 104.54 70.1694C104.485 69.3853 104.452 68.8736 104.395 68.0565C104.942 68.56 105.239 69.0029 105.646 69.168C106.543 69.5339 107.484 69.8723 108.436 69.9796C108.794 70.0208 109.484 69.4348 109.55 69.0524C109.614 68.6865 109.157 68.0428 108.763 67.8282C107.971 67.3962 106.989 67.2944 106.224 66.8268C105.597 66.4416 104.7 65.6548 104.774 65.1733C104.873 64.513 105.677 63.6629 106.353 63.4484C107.448 63.1017 108.686 63.1787 109.867 63.1292C111.072 63.0797 111.374 63.7977 111.3 64.7799C111.14 64.934 110.978 65.0908 110.819 65.2448C110.645 64.8817 110.568 64.3617 110.282 64.1912C109.682 63.8363 108.978 63.4979 108.307 63.4814C107.834 63.4676 107.344 63.9931 106.862 64.2764C107.201 64.7001 107.454 65.2889 107.894 65.509C108.827 65.9794 109.902 66.161 110.832 66.6342C112.343 67.4017 112.417 69.0002 110.885 69.6797C109.724 70.1941 108.343 70.3345 107.047 70.4005C105.38 70.4858 103.693 70.4115 102.031 70.2409C101.294 70.1666 100.494 69.8255 99.9048 69.3716C98.9584 68.637 98.1633 67.7071 97.1757 66.9533C97.0876 68.1776 96.3228 69.5311 98.0561 70.3427C95.9789 70.3427 93.8991 70.3565 91.822 70.3372C90.2703 70.3234 89.1561 69.5394 88.2923 68.2931C87.9814 67.8474 87.5412 67.4898 86.9249 66.8433C86.6691 68.3536 86.2592 69.4651 87.8108 70.2739H83.3787C83.6758 69.4761 84.0032 68.6012 84.3306 67.7236C84.2096 67.6521 84.0885 67.5806 83.9675 67.509C81.8436 70.7884 78.7321 70.8434 75.4747 70.0758C73.6012 69.6357 72.2916 68.4857 72.1128 66.227C71.5901 67.2449 71.1224 68.2959 70.5227 69.2615C70.2558 69.6934 69.6973 70.2547 69.3094 70.2272C68.7482 70.1859 68.0356 69.7925 67.7165 69.3248C66.6298 67.7181 65.6862 66.0124 64.5224 64.0674C63.4742 65.9822 62.5664 67.5998 61.6998 69.2395C61.3586 69.8805 60.9927 70.5353 60.1729 70.2602C59.6474 70.0841 59.0642 69.6907 58.7863 69.2285C57.8262 67.6191 57.0063 65.9299 56.0874 64.2957C55.9169 63.9931 55.5262 63.8115 55.2401 63.5749C55.0448 63.9436 54.6816 64.3122 54.6816 64.6809C54.6871 66.1417 54.7586 67.6108 54.9127 69.0634C54.9567 69.4678 55.3639 69.8365 55.6142 70.2354H51.4325C53.1547 68.6563 51.7737 66.6864 52.3211 64.9532C52.1671 64.8982 52.013 64.8404 51.8617 64.7854C51.2454 65.8061 50.6154 66.8157 50.0184 67.8474C48.2109 70.9727 48.2412 71.058 46.3292 67.8089C45.8092 66.9258 45.2425 66.0674 44.6124 65.0688C43.7623 68.2738 44.0485 69.6522 45.834 70.2492H39.2202C39.2862 69.809 39.4871 69.3853 39.377 69.0662C38.8406 67.5118 37.4815 68.117 36.4443 68.1611C36.0537 68.1776 35.6135 68.8708 35.3631 69.3413C35.2833 69.4926 35.7428 69.9273 36.0206 70.3262C35.1348 70.3262 34.1251 70.3179 33.1154 70.3262C30.7385 70.3482 28.3587 70.3565 25.9845 70.417C23.8881 70.4693 22.0971 69.9658 20.9362 68.0318C20.7106 67.6548 20.2566 67.4127 19.8467 67.0551C19.1919 69.0222 19.412 69.6714 20.8151 70.2987H15.6815C17.4147 69.6109 16.9388 68.3014 16.9608 67.1899C16.9828 66.0317 16.8865 64.8707 16.8425 63.7125C16.6801 63.7262 16.5178 63.74 16.3583 63.7537C16.3665 63.9518 16.361 64.1526 16.3858 64.348C16.6609 66.4994 15.8878 68.0455 13.7254 68.9121C12.2178 69.5174 10.5781 69.9988 8.96871 70.1006C6.03049 70.2877 3.07302 70.1529 0 70.0703C1.89278 70.0153 1.98632 68.7966 1.9313 67.4265C1.88178 66.1472 1.90929 64.8652 1.9258 63.5832C1.93955 62.3589 2.03309 61.1044 0.0165068 61.1236C0.123801 60.9421 0.228344 60.7605 0.335639 60.5789C4.36881 60.821 8.40748 60.9778 12.4269 61.3602C13.4366 61.4565 14.3692 62.2874 15.3568 62.7468C15.7888 62.9476 16.2592 63.1705 16.7214 63.1897C18.5949 63.2668 20.4712 63.2613 22.3475 63.308C22.7547 63.3191 23.2389 63.3025 23.5497 63.5061C24.0835 63.8528 24.8263 64.326 24.8895 64.8212C24.9501 65.2889 24.2815 65.8831 23.8661 66.3618C23.6763 66.5791 23.3186 66.6479 22.7602 66.9203C23.7671 67.941 24.6144 68.9341 25.6048 69.7595C26.2321 70.2822 26.9199 69.9933 26.9667 69.1405C27.0547 67.5448 27.0574 65.9381 26.9694 64.3425C26.9501 63.9793 26.4164 63.6437 26.0973 63.2695H33.7812C33.8307 63.795 33.8775 64.293 33.9243 64.7909C32.8128 63.5144 31.451 63.253 30.1635 63.7895C29.7563 63.9601 29.8471 65.3164 29.6298 66.5847C30.9998 66.2738 31.9792 66.0509 33.0274 65.8143V67.5971C32.3286 67.3522 31.6023 67.0331 30.8458 66.857C30.2433 66.7167 29.7095 66.934 29.8113 67.7071C29.9131 68.4884 29.3491 69.5449 30.6037 69.897C32.114 70.3207 33.7124 69.7402 34.5708 68.4004C35.5089 66.9395 36.3618 65.4209 37.2862 63.9491C38.0427 62.7413 38.6177 62.7661 39.3385 64.0096C40.2106 65.5145 41.0552 67.0331 41.9246 68.538C42.1447 68.9176 42.4115 69.2698 42.6564 69.6329C42.8105 69.6192 42.9618 69.6027 43.1158 69.5889C43.2534 67.8117 43.4322 66.0399 43.4927 64.2599C43.5065 63.839 43.1076 63.4043 43.0195 63.2283C46.5492 61.8307 47.3306 65.52 49.2316 67.6631C49.9166 66.5379 50.5852 65.6163 51.0666 64.6011C51.5866 63.5006 52.2991 62.9917 53.5316 63.187C54.0901 63.275 54.6761 63.2008 55.2511 63.2008C55.3336 63.0439 55.4162 62.8871 55.4987 62.7303C54.7476 62.0645 53.9966 61.3988 53.284 60.766H60.2334C60.2527 60.81 60.2747 60.854 60.2939 60.9008C59.8317 61.0576 59.3723 61.2117 58.7065 61.4373C59.5786 63.3218 60.4095 65.121 61.4164 67.2972C62.0739 66.0179 62.5774 65.0385 63.0836 64.0619C63.5045 63.2503 63.9117 62.4304 64.3491 61.6271C65.0039 60.4221 66.1456 60.3698 66.8526 61.5281C67.9476 63.3163 69.004 65.1293 70.3136 67.3302C71.1774 65.2999 71.9588 63.5942 72.5668 61.8307C72.6245 61.6601 71.6121 61.1209 71.1169 60.7632H76.3083C74.1982 61.275 73.7938 63.1732 72.7648 64.9367C77.4913 62.1388 81.4144 62.4827 83.8492 65.7263C83.995 65.6878 84.1408 65.652 84.2866 65.6135L84.2784 65.6107ZM5.9177 65.2614H5.9287C5.9287 66.2215 5.9287 67.1816 5.9287 68.1445C5.9287 69.234 6.51745 69.6824 7.56563 69.7237C9.90685 69.8145 11.9207 68.2133 12.1215 66.0592C12.3636 63.4786 10.9 61.7179 8.2259 61.374C6.10753 61.1016 5.92045 61.2612 5.91495 63.3411C5.91495 63.9821 5.91495 64.6231 5.91495 65.2614H5.9177ZM80.8257 67.0799C80.8257 64.9037 79.6482 63.3988 77.9672 63.4236C76.3991 63.4484 75.4114 64.6506 75.4169 66.5296C75.4224 68.6012 76.6742 70.0813 78.4239 70.0869C79.9783 70.0924 80.8284 69.0304 80.8257 67.0799ZM19.1809 65.4787C19.5661 65.9299 19.8907 66.6754 20.3529 66.7717C21.3241 66.9781 22.32 65.9877 22.2457 65.088C22.1577 64.0206 21.4066 63.6382 20.4547 63.5887C19.1369 63.5226 19.5826 64.5543 19.1809 65.4787ZM86.6636 65.2586C86.8424 65.8556 86.2509 66.9203 87.566 66.8047C88.5619 66.7167 89.3845 66.2353 89.3845 65.121C89.3845 64.0481 88.5894 63.6327 87.6265 63.5859C86.2564 63.5199 86.8369 64.6066 86.6636 65.2559V65.2586ZM36.1307 67.5338H38.604C38.1445 66.7167 37.7924 66.0894 37.3109 65.2283C36.8515 66.128 36.5324 66.747 36.1307 67.5338Z" fill="#878787"/>
</svg>
