<svg width="105" height="44" viewBox="0 0 105 44" fill="none" xmlns="http://www.w3.org/2000/svg">
<path d="M39.7369 43.8973C39.7618 39.9172 40.8417 36.3708 43.4725 33.3794C46.0818 30.4113 49.4391 28.6372 53.1514 27.4717C54.5079 27.0452 55.8929 26.7025 57.2726 26.3545C58.4541 26.0564 59.0752 25.3675 59.077 24.1591C59.0877 17.5375 59.0859 10.9159 59.077 4.29428C59.077 3.18949 58.4934 2.4363 57.4885 2.38811C53.4727 2.20071 49.5801 2.6951 46.1586 5.00999C45.0502 5.75961 44.1221 6.77516 43.1958 7.79785C44.77 6.90545 46.3942 6.43248 48.1897 6.55206C51.9646 6.8055 54.9505 10.0431 54.9148 13.8733C54.8791 17.8142 51.7914 20.9626 47.8095 21.1143C44.065 21.2588 40.7221 18.3389 40.3687 14.6158C39.8939 9.60408 42.7639 5.03855 47.7578 2.86644C50.8169 1.53498 54.0385 1.14589 57.3368 1.29046C60.3799 1.42432 63.357 1.89908 66.1466 3.21626C72.0186 5.98985 74.5852 12.0439 72.463 18.1836C71.4225 21.1946 69.27 23.1864 66.4964 24.5911C63.5765 26.0689 60.3799 26.6222 57.2565 27.4521C54.7149 28.1268 52.2341 29.0406 49.7567 29.933C48.6823 30.3203 48.2754 31.1252 48.4485 31.9855C48.6341 32.8976 49.3355 33.3812 50.5331 33.383C57.6599 33.3884 64.7866 33.3741 71.9115 33.4026C72.5755 33.4044 72.9324 33.0903 73.3179 32.662C82.6543 22.2905 91.9977 11.9261 101.339 1.55996C101.489 1.39219 101.643 1.22799 101.927 0.915649V32.255H105V33.3973H102.025V43.8937H89.9594V33.4758C89.5775 33.458 89.2652 33.4312 88.9528 33.4312C83.8162 33.4294 78.6795 33.4401 73.5428 33.4151C72.9146 33.4116 72.5023 33.624 72.0989 34.0755C69.3111 37.1989 66.5107 40.3116 63.6854 43.3993C63.423 43.6849 62.9518 43.9366 62.5752 43.9383C55.2111 43.9705 47.847 43.9615 40.4847 43.9598C40.2545 43.9598 40.026 43.9223 39.7333 43.8955L39.7369 43.8973ZM89.9006 15.9419C84.9442 21.4445 80.1377 26.7792 75.2705 32.1836H89.9006V15.9419Z" fill="#878787"/>
<path d="M38.9355 43.9312C38.4536 43.9312 38.1645 43.9312 37.8753 43.9312C34.104 43.9312 30.3327 43.9098 26.5632 43.9508C25.8475 43.958 25.5245 43.7099 25.2425 43.0834C24.1002 40.5419 22.8848 38.0342 21.7371 35.4962C21.4855 34.9394 21.207 34.7038 20.5592 34.7073C15.808 34.7395 11.0569 34.7395 6.3075 34.7073C5.65604 34.7038 5.38118 34.9483 5.13131 35.498C3.96405 38.0592 2.72183 40.5883 1.57777 43.1602C1.23151 43.9383 0.77282 44.0561 0 43.8313C1.62596 40.3545 3.22871 36.9258 4.83146 33.4972C7.38195 28.0482 9.92529 22.5957 12.499 17.1574C12.756 16.613 12.7542 16.1936 12.4776 15.676C12.0742 14.9228 11.744 14.1286 11.3746 13.3343C12.0296 13.0702 12.6739 12.8667 13.2647 12.5615C14.5194 11.9118 15.3993 10.8945 15.9954 9.61479C17.1216 7.19816 18.2621 4.78868 19.4847 2.19C25.985 16.1382 32.4174 29.9419 38.9373 43.9312H38.9355ZM6.06476 33.5294H20.8126C18.3549 28.2624 15.9365 23.0776 13.4521 17.7499C10.964 23.0669 8.54743 28.2285 6.06476 33.5294Z" fill="#878787"/>
</svg>
