<svg width="118" height="58" viewBox="0 0 118 58" fill="none" xmlns="http://www.w3.org/2000/svg">
<path d="M30.6308 15.1456C32.629 13.2771 34.5177 11.3921 36.5323 9.65329C39.5314 7.06511 42.81 4.85137 46.5215 3.41756C57.93 -0.989829 68.7101 0.32161 78.6317 7.4432C81.6418 9.60397 84.2391 12.3419 87.0209 14.8205C87.1506 14.9356 87.2255 15.1109 87.4227 15.3995C86.0985 16.6817 84.8053 17.9968 83.4464 19.2388C80.0253 22.3658 76.3522 25.1622 72.0307 26.9303C61.4003 31.2793 51.1536 30.4537 41.358 24.4353C37.5278 22.0827 34.2693 19.0398 31.1678 15.8196C31.0235 15.6698 30.9048 15.4927 30.6327 15.1475L30.6308 15.1456ZM38.5524 18.9028C38.7059 18.8023 38.8502 18.742 38.9451 18.6379C39.6538 17.8525 40.3771 17.0781 41.0292 16.2452C41.1552 16.0845 41.0913 15.5968 40.9342 15.4196C40.0136 14.3767 39.0328 13.3867 38.0848 12.3693C37.7579 12.0186 37.4748 11.9565 37.0985 12.3255C36.2985 13.1091 35.4711 13.8652 34.6473 14.6232C34.1651 15.0671 34.1524 15.4397 34.7003 15.8653C35.798 16.7201 36.8629 17.6169 37.946 18.4918C38.1287 18.6398 38.3369 18.7566 38.5524 18.9028ZM80.5148 18.5174C80.6865 18.4023 80.8491 18.3256 80.9751 18.2087C81.8592 17.3849 82.7304 16.5466 83.6163 15.7246C83.9889 15.3776 83.8756 15.1146 83.5322 14.8369C82.3615 13.8853 81.1907 12.9301 80.0345 11.9584C79.66 11.6442 79.3806 11.6259 79.0463 12.0241C78.4253 12.7638 77.7331 13.447 77.1431 14.2086C76.9933 14.4022 76.9842 14.9246 77.1376 15.0981C78.0527 16.1429 79.0281 17.1347 79.9943 18.1356C80.1349 18.2818 80.3231 18.3804 80.5167 18.5192L80.5148 18.5174ZM46.8119 10.9611C46.7371 10.7949 46.6841 10.656 46.611 10.5264C46.0192 9.47246 45.4457 8.40578 44.8046 7.38293C44.6932 7.20575 44.1982 7.06511 44.0247 7.16374C43.1333 7.66969 42.2676 8.23226 41.4438 8.84231C41.2794 8.96469 41.1918 9.48159 41.3087 9.64598C42.0776 10.7309 42.8922 11.7848 43.747 12.804C43.8786 12.9611 44.3754 13.0123 44.5544 12.8917C45.2284 12.4387 45.8475 11.8999 46.4759 11.3793C46.6074 11.2698 46.695 11.109 46.8138 10.9611H46.8119ZM77.0919 21.4763C76.9604 21.195 76.9276 21.0763 76.8582 20.9832C76.0161 19.8763 75.1905 18.7566 74.3029 17.6863C74.1841 17.542 73.6709 17.5438 73.4773 17.6772C72.8563 18.1028 72.2572 18.5813 71.7403 19.1238C71.5448 19.3302 71.4352 19.8416 71.5539 20.0864C72.0544 21.1183 72.6754 22.09 73.2124 23.1056C73.4608 23.575 73.7348 23.6243 74.1494 23.3522C74.9823 22.8024 75.8189 22.2599 76.6572 21.7193C76.8088 21.6206 76.9732 21.5421 77.0938 21.4763H77.0919ZM48.0229 5.48883C48.4997 6.63405 48.9672 7.77745 49.4604 8.91172C49.5024 9.00853 49.7472 9.12177 49.8257 9.08159C50.5527 8.71994 51.2741 8.34185 51.9682 7.91992C52.0577 7.86513 52.0321 7.52539 51.9755 7.34457C51.6906 6.45323 51.3965 5.56189 51.0604 4.68881C50.9801 4.48059 50.6769 4.16095 50.5581 4.19383C49.7746 4.41118 49.0092 4.69795 48.2531 4.99932C48.1398 5.04498 48.1088 5.29339 48.0211 5.48883H48.0229ZM68.3776 21.3941C68.2132 21.4635 68.1603 21.4928 68.1018 21.5092C66.2388 22.0553 65.8917 22.6435 66.5329 24.4316C67.395 26.839 66.6991 26.7148 69.4352 25.7303C69.521 25.6992 69.6452 25.681 69.6763 25.617C69.7932 25.3887 70.0142 25.0965 69.9503 24.9138C69.5977 23.8873 69.185 22.8809 68.7667 21.8782C68.6863 21.6846 68.4964 21.5366 68.3776 21.3941ZM61.9191 27.6317C64.1657 27.5915 64.3045 27.4216 63.9246 25.438C63.583 23.6645 63.1483 23.4563 61.5647 24.3695C61.3729 24.4791 61.1757 24.8006 61.1921 25.007C61.2487 25.7577 61.3693 26.5084 61.5282 27.2463C61.5684 27.4344 61.8478 27.6317 61.9172 27.6317H61.9191ZM56.1655 2.89335C53.7765 3.05408 53.729 3.11801 54.1856 5.17101C54.2185 5.31896 54.2477 5.46691 54.2806 5.61303C54.4584 6.40452 54.9363 6.67485 55.7144 6.424C56.5388 6.15855 56.8943 5.60146 56.7811 4.75274C56.7299 4.36369 56.7646 3.9509 56.6423 3.58925C56.54 3.28422 56.2678 3.03581 56.1655 2.89517V2.89335ZM59.4186 5.37741C60.0031 5.28608 60.4962 5.17467 60.993 5.14179C61.5848 5.10343 61.773 4.80388 61.7273 4.25593C61.6981 3.8961 61.7547 3.52532 61.6871 3.17463C61.6506 2.9865 61.4661 2.73627 61.2944 2.68147C59.7766 2.19379 59.1939 2.65407 59.3218 4.20113C59.3492 4.52808 59.3766 4.85685 59.4204 5.37741H59.4186ZM57.6103 27.9093C58.0213 27.7632 59.0003 28.2892 58.803 27.2299C58.6807 26.5668 59.3619 25.3906 58.1163 25.2609C56.7519 25.1184 56.3957 25.4855 56.3829 26.4353C56.3695 27.4083 56.778 27.8996 57.6085 27.9093H57.6103ZM53.9007 26.5431C54.0541 25.7869 53.5847 25.7157 53.0422 25.7486C52.4011 25.7869 51.5518 25.4855 51.5883 26.6527C51.6102 27.3449 52.0157 27.5824 53.1865 27.608C54.0395 27.6262 53.8112 26.9833 53.9007 26.5449V26.5431ZM65.4753 4.77831C65.994 4.86051 66.5767 4.78744 66.4981 3.83766C66.4013 2.67416 65.4205 3.05773 64.8214 2.97006C63.9611 2.84403 64.2935 3.63857 64.226 4.07328C64.0798 5.02124 64.7812 4.7637 65.4753 4.78014V4.77831ZM48.4394 25.312C48.0321 25.586 47.7964 25.7449 47.5608 25.9038C48.0248 26.1595 48.4723 26.4572 48.9636 26.6399C49.0805 26.6837 49.3417 26.3367 49.5371 26.1687C49.1937 25.9002 48.8503 25.6335 48.4394 25.312ZM69.6325 4.9701L69.7055 5.10709C69.9777 4.95731 70.2516 4.80571 70.5238 4.65594C70.1512 4.41301 69.8041 4.09702 69.395 3.95821C69.1777 3.88515 68.8562 4.11711 68.5822 4.21209C68.721 4.45319 68.816 4.74361 69.0133 4.9153C69.1411 5.02489 69.4206 4.95914 69.6306 4.97192L69.6325 4.9701Z" fill="#878787"/>
<path d="M83.3368 47.8019V57.382H80.8728C80.8417 57.0679 80.7796 56.7226 80.7796 56.3774C80.7742 52.5783 80.7961 48.7809 80.765 44.9818C80.7595 44.2347 80.9769 43.9827 81.7386 43.979C84.4418 43.9662 84.4363 43.9443 85.6163 46.3973C86.6555 48.5563 87.7113 50.7079 88.7633 52.8614C88.8254 52.9874 88.9149 53.1007 89.1487 53.4587C89.1761 52.8943 89.2017 52.5856 89.2017 52.2751C89.2017 49.8129 89.22 47.3526 89.1834 44.8905C89.1725 44.211 89.399 43.9918 90.0693 43.9918C92.1808 43.9918 91.7881 43.9005 91.7935 45.6576C91.8027 49.3033 91.7734 52.9491 91.7588 56.5948C91.7588 56.8359 91.7314 57.0752 91.7132 57.4131C90.7287 57.4131 89.7643 57.4606 88.8072 57.382C88.5478 57.3601 88.23 57.0094 88.0912 56.7318C86.7761 54.0998 85.4957 51.4495 84.1971 48.8083C84.0144 48.4357 83.7916 48.0832 83.5888 47.7216C83.5048 47.7471 83.4226 47.7727 83.3386 47.7983L83.3368 47.8019Z" fill="#878787"/>
<path d="M67.583 57.7456C63.3108 57.7602 60.3756 54.9218 60.3665 50.7701C60.3573 46.5654 63.2451 43.6704 67.4552 43.6613C71.9521 43.6521 74.8234 46.4613 74.8234 50.8687C74.8234 54.8925 71.8352 57.7328 67.583 57.7474V57.7456ZM63.0094 50.6422C62.9857 53.4003 64.8104 55.3528 67.4278 55.3674C70.1822 55.3839 72.1256 53.5701 72.1603 50.9564C72.1987 47.9956 70.4397 46.0778 67.6543 46.0467C64.9127 46.0157 63.035 47.8751 63.0094 50.6422Z" fill="#878787"/>
<path d="M39.946 57.382H30.7514C30.724 57.0551 30.6746 56.7355 30.6746 56.4158C30.671 52.6203 30.6929 48.823 30.6582 45.0275C30.6509 44.2457 30.8555 43.9663 31.6774 43.9845C34.0153 44.0339 36.3551 43.9955 38.6949 43.9992C38.9908 43.9992 39.2867 44.0339 39.5479 44.0503C39.5972 44.1891 39.641 44.2476 39.6337 44.2987C39.4316 45.6613 38.6565 46.3438 37.3086 46.3462C36.0629 46.3499 34.8172 46.3554 33.5733 46.3681C33.4911 46.3681 33.4089 46.4321 33.2592 46.4942C33.2592 47.1974 33.292 47.9189 33.2482 48.6367C33.2135 49.2193 33.4729 49.3746 33.9971 49.3691C35.3852 49.3527 36.7752 49.3636 38.3351 49.3636C38.1396 50.149 38.0227 50.7974 37.7999 51.4057C37.7433 51.5628 37.3597 51.6724 37.1223 51.6797C36.0903 51.7089 35.0565 51.7198 34.0245 51.6797C33.4199 51.6559 33.2537 51.8769 33.2446 52.4669C33.2062 55.0843 33.1879 55.0843 35.7615 55.0843C36.6419 55.0843 37.5259 55.1318 38.4026 55.0697C39.146 55.0167 39.5442 55.2615 39.6428 56.0158C39.6995 56.4542 39.831 56.8816 39.9442 57.3839L39.946 57.382Z" fill="#878787"/>
<path d="M2.58828 46.3462C2.58828 47.2704 2.53897 48.0576 2.62116 48.8303C2.64308 49.0312 3.06866 49.3289 3.32072 49.3417C4.50247 49.4001 5.68788 49.3727 6.87329 49.3819C7.07969 49.3819 7.28426 49.4111 7.65504 49.4385C7.487 50.1362 7.37193 50.781 7.15458 51.3892C7.09796 51.5499 6.72352 51.6741 6.49155 51.6796C5.45957 51.707 4.42576 51.7162 3.39378 51.6741C2.74719 51.6467 2.52253 51.8878 2.57185 52.5198C2.61568 53.0933 2.62664 53.676 2.57367 54.2495C2.51522 54.8925 2.73989 55.1116 3.38647 55.0934C4.78193 55.0569 6.1847 55.15 7.5765 55.0605C8.50803 55.0002 8.91717 55.3564 9.04137 56.2149C9.09251 56.5692 9.18019 56.9162 9.26968 57.3564H0.0932616C0.0695168 57.0825 0.0293335 56.8176 0.0275069 56.5546C0.0183744 52.6988 0.03116 48.8412 0.000109188 44.9854C-0.00537036 44.2512 0.19372 43.9735 0.975469 43.9882C3.34446 44.0338 5.71346 43.9973 8.08245 44.0009C8.37469 44.0009 8.66511 44.0503 8.88429 44.0703C8.95918 44.1927 8.99205 44.2219 8.99023 44.2439C8.80392 45.6442 8.01365 46.345 6.61941 46.3462C5.29336 46.3462 3.9673 46.3462 2.58828 46.3462Z" fill="#878787"/>
<path d="M55.3856 54.6222C55.3856 55.3528 55.4166 55.9866 55.3673 56.6149C55.3527 56.8067 55.1518 57.077 54.971 57.1464C52.328 58.1766 47.4183 57.7127 45.4512 54.2569C42.863 49.7089 45.6466 44.4796 50.9691 43.9572C52.18 43.8384 53.433 44.0649 54.6586 44.1964C55.3454 44.2695 55.6687 44.6512 55.3673 45.3965C55.1883 45.8403 55.1043 46.3243 54.9783 46.7846C54.0541 46.6147 53.181 46.359 52.2988 46.3079C49.9005 46.1709 47.9791 47.3782 47.4092 49.276C46.5982 51.9774 48.2896 54.6697 51.0768 55.1135C52.7024 55.3729 53.5116 55.2871 55.3856 54.6204V54.6222Z" fill="#878787"/>
<path d="M117.505 46.6914C116.305 46.5563 115.204 46.306 114.112 46.3353C111.522 46.4083 109.836 48.0485 109.757 50.4066C109.672 52.9345 111.275 54.9035 113.818 55.119C115.14 55.2322 116.494 54.9838 117.929 54.8943C117.929 55.2998 117.958 55.9501 117.911 56.5948C117.896 56.7848 117.705 57.0313 117.526 57.1282C114.157 58.9583 108.44 56.6039 107.388 52.9673C106.029 48.2714 108.992 44.0941 113.887 43.9096C115.045 43.8658 116.218 44.1288 117.379 44.2804C117.964 44.3571 118.114 44.7115 117.92 45.2668C117.743 45.7727 117.617 46.2969 117.504 46.6933L117.505 46.6914Z" fill="#878787"/>
<path d="M19.7996 49.5956C20.5959 47.9426 21.3594 46.4704 22.0115 44.9508C22.3439 44.1763 22.8115 43.9005 23.6133 43.9845C24.112 44.0375 24.6197 43.9937 25.3376 43.9937C24.6343 45.327 24.0389 46.4668 23.4325 47.601C22.89 48.6166 22.3859 49.6577 21.7758 50.6331C21.1694 51.6011 20.9393 52.6093 20.9941 53.7381C21.0525 54.9418 21.0069 56.1491 21.0069 57.3893H18.4315C18.4315 56.0852 18.3712 54.7939 18.4516 53.5098C18.5119 52.5472 18.2233 51.7527 17.7721 50.9344C16.5319 48.6915 15.3538 46.4138 14.0734 44.0046C15.0561 44.0046 15.8945 43.9644 16.7255 44.032C16.9356 44.0485 17.184 44.3736 17.3027 44.611C17.9639 45.9407 18.5868 47.2905 19.2333 48.6294C19.3703 48.9125 19.553 49.1718 19.8032 49.5919L19.7996 49.5956Z" fill="#878787"/>
<path d="M101.069 57.393H98.6029C98.5864 57.0332 98.5572 56.7099 98.5572 56.3884C98.5517 52.5966 98.57 48.8047 98.5298 45.0147C98.5207 44.2311 98.7124 43.9462 99.538 43.9809C101.458 44.0613 101.116 43.9407 101.123 45.5316C101.14 49.1408 101.127 52.75 101.122 56.3592C101.122 56.6861 101.091 57.0113 101.07 57.393H101.069Z" fill="#878787"/>
</svg>
