<svg width="119" height="64" viewBox="0 0 119 64" fill="none" xmlns="http://www.w3.org/2000/svg">
<path d="M62.2917 3.43018C61.7006 3.48846 61.1075 3.54673 60.5164 3.60501C60.4748 3.53424 60.4311 3.46556 60.3894 3.3948L61.2719 3.86308C61.1678 4.03375 61.0638 4.20233 60.9597 4.373C60.2729 4.21274 59.5632 4.11492 58.9034 3.87765C58.1958 3.62374 57.536 3.24078 56.8887 2.93067C57.4611 2.87448 58.1167 2.80996 58.7723 2.74544C58.7702 2.62473 58.7681 2.50609 58.764 2.38538H55.1633C55.307 2.59559 55.4131 2.74752 55.538 2.92651C55.0926 2.92651 54.6285 3.04306 54.2622 2.90362C53.413 2.57478 51.2443 2.74128 50.6969 3.34901C50.5637 3.49678 50.6033 4.05872 50.7406 4.14406C51.4296 4.57072 52.1767 4.90164 52.9905 5.30749C52.9655 5.3949 52.8698 5.54892 52.8948 5.68004C52.953 5.98182 53.0717 6.27112 53.1653 6.56666C53.4421 6.42097 53.7398 6.30234 53.9854 6.11502C54.1019 6.02761 54.1061 5.68004 54.1872 5.66963C55.0843 5.5614 55.4464 5.04317 55.8127 4.22314C56.2248 3.30114 58.1708 3.38855 58.6432 4.41878C59.1906 5.61343 59.8358 5.37617 60.5018 5.05357C61.5612 6.07548 62.5456 7.02662 63.5301 7.97568C63.6029 8.04644 63.7569 8.15675 63.7465 8.1734C62.9827 9.46795 64.502 9.80928 64.7809 10.6626C64.8184 10.7792 64.8205 10.9061 64.8475 11.0768C63.8173 10.673 62.862 10.3005 61.8567 9.9071C62.273 9.56161 62.683 9.22236 63.1867 8.80195C62.1315 8.74783 61.199 8.69788 60.2666 8.65417C60.1751 8.65001 60.021 8.74575 59.9961 8.71453C59.2947 7.85497 58.458 8.23792 57.5485 8.4731C58.2332 8.54803 58.8326 8.61463 59.5944 8.69996C59.3176 9.07043 59.149 9.29521 58.8035 9.75725C59.688 9.98827 60.4373 10.1818 61.1845 10.3775C61.1866 10.4357 61.1886 10.4919 61.1907 10.5502C60.1667 10.6397 59.1427 10.7292 58.1188 10.8166C58.0959 10.7521 58.0709 10.6876 58.048 10.621C58.2332 10.494 58.4205 10.3691 58.687 10.1881C58.4955 10.1506 58.406 10.1111 58.3206 10.1173C57.7025 10.1569 57.076 10.1548 56.4704 10.2692C56.1374 10.3317 55.8377 10.5877 55.5255 10.7625C55.3423 10.8645 55.1488 11.0893 54.9885 11.0664C53.7897 10.8915 52.568 11.6158 52.2454 12.3047C51.4961 13.9115 49.931 13.6326 48.8363 14.3402C48.2494 14.719 47.9559 15.1082 47.983 15.8408C48.0059 16.5068 47.8269 17.1791 47.7374 17.8492C47.5563 17.8555 47.3752 17.8617 47.1942 17.868C47.0963 17.3456 46.884 16.8148 46.9278 16.3049C46.9798 15.6868 47.0818 15.3704 46.2409 15.1686C45.3959 14.9667 44.6696 14.3818 43.8287 15.1394C43.7413 15.2185 43.4916 15.1623 43.3334 15.1144C41.6039 14.5692 41.0357 14.9355 40.0242 16.5797C39.2791 17.793 38.8212 18.9523 39.2978 20.4363C38.4091 20.482 37.6224 20.5258 36.8336 20.5632C36.0365 20.6007 35.7617 19.8577 35.9719 19.4789C36.7316 18.1115 35.8034 16.7795 36.0635 15.4454C36.1821 14.8418 36.1426 14.207 36.1738 13.5847C36.0864 13.5681 35.999 13.5535 35.9095 13.5368C35.6993 14.9334 35.4891 16.332 35.2789 17.7285C35.2019 17.7285 35.1249 17.7285 35.0478 17.7285C35.0478 17.0396 34.9625 16.3362 35.0707 15.666C35.1915 14.9042 35.5141 14.1758 35.6951 13.4203C35.8679 12.7002 35.9699 11.9613 36.1031 11.2329C36.0219 11.1684 35.9386 11.1038 35.8575 11.0393C33.9739 13.3724 32.0924 15.7055 30.5128 17.664C33.516 10.5523 42.913 0.936815 57.1156 0.32492C71.7282 -0.305705 82.4322 8.79986 86.5198 17.8701C86.3283 17.6224 86.1369 17.3747 85.7268 16.8461C85.6894 17.3955 85.604 17.7098 85.6665 17.9887C85.7456 18.3363 85.9454 18.6568 85.9932 19.0127C84.9235 17.5912 83.8537 16.1676 82.7839 14.7461C82.6736 14.8293 82.5654 14.9126 82.4551 14.9958C83.1898 15.8595 83.9245 16.7254 84.6571 17.5891C84.5738 17.6557 84.4906 17.7223 84.4094 17.7889C83.5498 17.1229 82.6903 16.4589 81.8286 15.7929C81.9473 15.6764 82.0638 15.5619 82.1824 15.4454C81.7787 15.5682 81.377 15.693 80.8421 15.8554C80.7568 16.5942 80.6922 17.5162 80.5341 18.4216C80.4196 19.0772 79.3436 19.4497 78.765 19.1313C78.4923 18.9815 78.1635 18.9357 77.741 18.8066C77.4892 17.8513 77.2061 16.792 76.8877 15.5869H79.3124C79.1708 14.3777 78.484 13.7221 77.7472 13.4557C78.3779 12.6357 78.9856 11.8406 79.5933 11.0476C79.4768 11.0352 79.3602 11.0206 79.2416 11.0081C79.1188 10.5128 79.0252 10.0049 78.8566 9.52415C78.8004 9.36597 78.484 9.13495 78.4008 9.17449C77.3039 9.69273 76.9959 8.6958 76.6213 8.14843C75.6743 6.76646 74.3818 6.08172 72.7876 5.82364C71.9405 5.68628 71.1746 5.52186 70.6168 4.68102C70.3358 4.25645 69.5866 3.98588 69.0246 3.93801C67.8237 3.83395 66.5 3.51135 65.6592 4.87666C65.5635 5.03276 65.0723 5.12434 64.8954 5.02027C64.0254 4.5062 63.2012 3.91928 62.3604 3.35734C62.4436 3.05971 62.5269 2.76001 62.6143 2.4499C62.0503 2.4832 61.3156 2.04821 60.5601 2.69133C61.1366 2.93692 61.7131 3.18251 62.2917 3.4281V3.43018Z" fill="#878787"/>
<path d="M45.5084 40.2686H68.5523C68.571 41.7318 68.2463 42.9576 66.727 43.711C65.78 44.1814 64.985 44.8433 64.5354 46.0046C64.1504 46.9995 63.1888 47.7841 62.4313 48.6145C62.2564 48.8039 61.8714 48.8185 61.5779 48.8788C60.7309 49.0537 59.8671 49.1681 59.0388 49.4012C58.7661 49.4783 58.558 49.8383 58.352 50.0943C58.0856 50.4232 57.8982 50.829 57.5902 51.1058C57.022 51.6178 56.4393 52.1464 55.7733 52.5003C55.2405 52.7812 54.5765 52.8104 53.9064 52.9665C53.9251 54.08 53.9251 54.0758 52.4911 54.0945C52.3038 54.0966 52.104 54.1445 51.9375 54.2277C51.6253 54.3838 51.3318 54.5795 51.1965 54.6606C50.953 55.2184 50.7428 55.6971 50.4639 56.3361C50.4702 56.3444 50.67 56.5546 50.8635 56.7627C50.0331 57.7201 50.0352 57.7347 51.1861 58.8752C50.0331 58.9543 48.1496 57.4266 48.0538 56.2986C48.008 55.772 47.5772 55.1893 48.2058 54.721C47.5273 54.3401 47.7624 53.6928 47.752 53.1267C47.7416 52.5981 47.7458 52.0674 47.7978 51.5429C47.9622 49.9112 48.033 48.2586 48.3639 46.6581C48.8364 44.3791 48.4118 42.5809 46.2452 41.4237C46.1307 41.3634 46.0475 41.2281 45.9746 41.1115C45.8477 40.9097 45.7415 40.6932 45.5084 40.2665V40.2686Z" fill="#878787"/>
<path d="M70.8209 37.4735C69.7324 37.4735 68.8042 37.4693 67.878 37.4735C67.1537 37.4777 67.289 36.9449 67.2848 36.5182C67.264 32.8531 67.2495 29.188 67.2349 25.5228C67.2307 24.63 67.2349 23.7371 67.2349 22.7339C68.007 22.7339 68.7188 22.7173 69.4285 22.736C71.3287 22.786 73.231 22.8505 75.1312 22.9129C77.429 22.9878 78.8297 24.0493 79.3042 26.0661C79.8745 28.4928 79.0877 30.5574 77.1875 31.6272C77.0439 31.7084 76.9045 31.8 76.7255 31.9082C77.8494 33.8458 78.9462 35.7377 80.0805 37.6983C78.6902 37.6983 77.4643 37.7295 76.2406 37.6691C76.0262 37.6587 75.7827 37.2945 75.6307 37.0448C74.9356 35.8917 74.1614 34.7679 73.6202 33.5441C73.05 32.2537 72.1696 31.9456 70.8188 32.2412V37.4714L70.8209 37.4735ZM70.773 28.9715C72.1488 28.9715 73.3913 29.0194 74.6276 28.9549C75.4955 28.9091 75.7244 28.2389 75.7515 27.4772C75.7785 26.6925 75.4039 26.166 74.6338 26.1264C73.3663 26.0619 72.0947 26.1077 70.773 26.1077V28.9694V28.9715Z" fill="#878787"/>
<path d="M55.6129 31.4441V34.183C58.0231 34.183 60.3707 34.2247 62.7163 34.1622C63.6363 34.1372 63.9068 34.412 63.8881 35.3277C63.8465 37.4028 63.8923 37.4007 61.8193 37.4028C58.9471 37.4048 56.0729 37.4111 53.2008 37.4173C52.8282 37.4173 52.4536 37.4173 51.9645 37.4173V22.7568C52.1143 22.734 52.3079 22.6798 52.5035 22.6798C55.9647 22.6694 59.4258 22.6778 62.887 22.6549C63.4906 22.6507 63.7903 22.8068 63.7507 23.4707C63.707 24.1908 63.7403 24.9151 63.7403 25.7747H55.5859V28.3138C56.7389 28.3138 57.8982 28.3159 59.0575 28.3138C60.4269 28.3111 61.1117 29.0083 61.1117 30.4055C61.1117 30.7136 61.1117 31.0195 61.1117 31.4503H55.6129V31.4441Z" fill="#878787"/>
<path d="M25.9173 38.2353C25.8465 38.2665 25.8174 38.2831 25.7862 38.2936C24.1378 38.7681 22.9931 38.3289 22.0045 36.793C20.5851 34.5889 18.8805 32.568 17.2946 30.4721C17.1406 30.2682 16.9658 30.0788 16.6681 29.727V38.9429C15.7753 39.0158 14.9407 39.0844 13.9999 39.1614V24.3907C14.9074 24.322 15.8564 24.2013 16.8055 24.2096C17.0615 24.2096 17.3654 24.5592 17.561 24.8152C19.4112 27.2274 21.2428 29.6542 23.2824 32.3432C23.2824 31.2235 23.2824 30.3868 23.2824 29.5522C23.2783 27.9267 23.3011 26.2992 23.2491 24.6737C23.2262 23.9806 23.4094 23.6456 24.1482 23.6622C24.6977 23.6747 25.2471 23.5935 25.9194 23.5457V38.2374L25.9173 38.2353Z" fill="#878787"/>
<path d="M92.4349 28.3284C91.7835 27.9808 91.3027 27.6457 90.7699 27.4563C89.542 27.0193 88.3036 26.5759 87.034 26.3012C86.6094 26.2096 86.0766 26.628 85.5938 26.8111C85.8935 27.2191 86.1099 27.7727 86.5137 28.0058C87.4357 28.5407 88.4722 28.8758 89.4192 29.3732C90.2704 29.8207 91.132 30.2973 91.8667 30.9071C93.3319 32.1205 93.6171 33.7501 93.155 35.5233C92.7013 37.2612 91.4422 38.1333 89.7667 38.4975C87.1235 39.0698 84.7779 38.2561 82.5572 36.9115C82.3553 36.7888 82.1409 36.4995 82.1305 36.2788C82.0847 35.2528 82.1097 34.2225 82.1097 32.9883C82.5426 33.2256 82.8194 33.3942 83.1087 33.5316C84.2909 34.0956 85.4481 34.7325 86.674 35.1758C87.2859 35.3964 88.0455 35.3506 88.7074 35.2424C89.0716 35.182 89.5815 34.7824 89.6439 34.4619C89.7001 34.1747 89.3089 33.6377 88.9821 33.467C87.852 32.8739 86.6469 32.4264 85.5001 31.8624C83.806 31.0299 82.3699 29.9455 81.9807 27.9246C81.5436 25.656 82.705 23.7371 84.934 23.1689C87.5314 22.5071 89.8396 23.4311 92.0853 24.5883C92.2559 24.6757 92.4141 24.9609 92.4204 25.1586C92.4537 26.1514 92.4349 27.1441 92.4349 28.3263V28.3284Z" fill="#878787"/>
<path d="M3.10455 25.4146C3.10455 26.7112 3.10247 27.91 3.10455 29.1109C3.10871 30.8405 3.10455 32.57 3.12952 34.2995C3.15866 36.1311 3.86213 37.0385 5.23161 37.0739C6.89247 37.1155 8.01427 36.1123 8.0663 34.312C8.14123 31.6855 8.07671 29.0547 8.08295 26.4261C8.08712 24.759 7.83112 24.9047 9.61269 24.7631C10.0872 24.7257 10.5618 24.6778 11.1112 24.6299C11.1445 24.9713 11.1903 25.2356 11.1903 25.4999C11.2049 28.1639 11.259 30.828 11.1986 33.492C11.1757 34.5493 11.0467 35.6524 10.7074 36.6451C9.64183 39.7733 5.51258 41.3863 2.54052 39.9107C1.07115 39.1822 0.307318 37.8731 0.215742 36.3309C0.0450779 33.4337 0.0492405 30.5262 0.00553374 27.6228C-0.0236041 25.7205 -0.00487262 25.7184 1.8433 25.5062C2.21376 25.4645 2.58631 25.452 3.10455 25.4146Z" fill="#878787"/>
<path d="M29.7719 44.3271C36.1219 55.3079 45.6708 60.9461 58.1626 61.0606C70.5919 61.1751 80.2199 55.7325 86.7593 45.0514C83.0254 53.8656 72.8064 62.9754 59.2573 63.2875C44.3158 63.631 34.0635 54.7751 29.7719 44.3271Z" fill="#878787"/>
<path d="M98.329 35.9708C98.0293 36.7159 97.7171 37.3736 97.5007 38.0625C97.3238 38.6265 97.0282 38.8347 96.4413 38.7577C95.767 38.6703 95.0822 38.6536 94.2976 38.5995C94.4058 38.2249 94.4579 37.9689 94.5515 37.7274C96.2186 33.4858 97.894 29.2462 99.5591 25.0025C99.7547 24.5051 99.9129 23.991 100.623 24.1659C101.324 24.3386 102.225 23.8745 102.621 24.9776C104.311 29.6916 106.048 34.387 107.766 39.0928C107.799 39.1843 107.793 39.2905 107.83 39.586C106.737 39.4986 105.693 39.4591 104.664 39.2967C104.448 39.2634 104.192 38.793 104.144 38.4954C103.859 36.6743 102.833 35.9771 101.018 36.1478C100.14 36.231 99.2365 36.0395 98.3311 35.9708H98.329ZM99.5549 32.8635C100.481 32.9259 101.228 32.9759 102.136 33.0383C101.709 31.8687 101.328 30.8259 100.866 29.5605C100.385 30.7697 99.9961 31.7521 99.5549 32.8635Z" fill="#878787"/>
<path d="M49.9415 22.7215C49.8 23.1273 49.7167 23.4166 49.5981 23.6914C47.7416 28.0058 45.8227 32.2953 44.0515 36.6431C43.5145 37.9626 42.5405 37.5131 41.6622 37.6629C40.8318 37.8045 40.709 37.1988 40.4759 36.6618C38.6881 32.5055 36.8919 28.3534 35.1 24.1992C34.9688 23.8932 34.8627 23.5748 34.6483 23.0025C35.9116 23.0025 37.0126 22.9504 38.1032 23.0378C38.3967 23.0607 38.7734 23.4603 38.9149 23.7746C40.0284 26.2659 41.0919 28.778 42.1742 31.2818C42.3074 31.5898 42.4573 31.8895 42.6612 32.3266C43.9287 29.394 45.1692 26.6239 46.3159 23.8183C46.6573 22.9837 47.0964 22.6112 47.9955 22.709C48.597 22.7735 49.211 22.7215 49.9394 22.7215H49.9415Z" fill="#878787"/>
<path d="M112.769 36.8158C114.6 36.9823 116.317 37.1613 118.037 37.2841C118.711 37.3319 119.05 37.5422 118.994 38.2831C118.94 38.999 118.982 39.7212 118.982 40.6245C115.853 40.3373 112.821 40.0563 109.695 39.7691V24.8422C110.532 24.9109 111.337 24.8963 112.093 25.0816C112.344 25.144 112.621 25.7143 112.627 26.0577C112.688 29.3399 112.692 32.6241 112.715 35.9063C112.715 36.1768 112.744 36.4453 112.767 36.8158H112.769Z" fill="#878787"/>
<path d="M32.6981 23.3646V37.9897C31.6304 38.0396 30.5419 38.0917 29.3723 38.1479C29.3452 37.7462 29.3077 37.4465 29.3057 37.1468C29.2828 32.926 29.2869 28.7051 29.2266 24.4864C29.2141 23.6268 29.4659 23.2938 30.3276 23.3542C31.0789 23.4062 31.8365 23.3646 32.6981 23.3646Z" fill="#878787"/>
<path d="M75.9179 10.804C75.741 10.5709 75.5433 10.3524 75.3893 10.1047C75.227 9.84039 75.1062 9.54901 74.9668 9.27012C75.0646 9.20352 75.1624 9.13484 75.2603 9.06824C76.3488 10.0111 77.4393 10.9539 78.7152 12.059C77.8931 12.2547 77.379 12.3775 76.8399 12.5065C76.7525 11.9404 76.6922 11.3909 76.5548 10.8623C76.534 10.7853 76.1323 10.8082 75.9075 10.7853L75.9159 10.8061L75.9179 10.804Z" fill="#878787"/>
<path d="M75.9096 10.7833C75.9262 11.033 75.945 11.2828 75.9679 11.6324C75.6827 11.7406 75.3476 11.8676 74.8107 12.0695C74.8544 11.4285 74.8877 10.9498 74.921 10.4711C75.2519 10.5814 75.5849 10.6896 75.9158 10.7999L75.9075 10.7812L75.9096 10.7833Z" fill="#878787"/>
</svg>
