<svg width="49" height="50" viewBox="0 0 49 50" fill="none" xmlns="http://www.w3.org/2000/svg">
<path d="M36.5635 0C36.875 0.0810535 37.1905 0.149412 37.4961 0.24609C38.8731 0.683583 39.9238 1.53513 40.6299 2.79293C40.7695 3.04097 40.915 3.13081 41.1933 3.12495C41.9726 3.10738 42.7529 3.11421 43.5331 3.12105C44.1865 3.12691 44.4784 3.44038 44.457 4.09271C44.3964 5.90128 43.3212 7.18056 41.3418 7.75965C41.3418 8.47448 41.3349 9.20299 41.3428 9.93149C41.3584 11.3709 40.916 12.6395 39.9746 13.7361C39.8701 13.8582 39.7939 14.0476 39.79 14.2068C39.7715 14.9695 39.7813 15.7322 39.7813 16.5525C40.8857 16.8542 41.9843 17.1736 43.0947 17.4519C44.4521 17.7927 45.7294 18.2614 46.7157 19.321C47.7684 20.4528 48.3466 21.7819 48.3544 23.3239C48.3729 26.9303 48.3632 30.5367 48.3602 34.143C48.3602 34.811 48.079 35.0883 47.4091 35.0893C44.9228 35.0932 42.4375 35.0932 39.9512 35.0893C39.3672 35.0893 39.0205 34.8022 39.0059 34.3325C38.9912 33.8452 39.3525 33.5317 39.9541 33.5307C42.2119 33.5278 44.4697 33.5298 46.8026 33.5298C46.8026 33.3413 46.8026 33.1714 46.8026 33.0005C46.8026 29.8814 46.8036 26.7623 46.8026 23.6432C46.8017 21.3503 45.5976 19.7683 43.3798 19.1511C42.1767 18.8161 40.9678 18.5017 39.7676 18.155C39.4297 18.0573 39.2197 18.0993 38.9912 18.3982C38.2227 19.405 37.419 20.3854 36.6241 21.3717C36.127 21.9899 35.6417 21.9938 35.1485 21.3815C34.3331 20.3698 33.5313 19.3474 32.7032 18.3454C32.5978 18.2185 32.3478 18.0974 32.2052 18.1325C30.963 18.4421 29.7287 18.7878 28.4982 19.1208C28.4943 19.1706 28.4767 19.2126 28.4904 19.2312C29.4045 20.4421 29.6984 21.818 29.6505 23.3112C29.6095 24.5934 29.6398 25.8775 29.6427 27.1607C29.6457 28.565 29.2023 29.8023 28.2863 30.8716C28.1887 30.9859 28.0949 31.148 28.092 31.2905C28.0734 32.0855 28.0832 32.8804 28.0832 33.7065C29.4103 34.0698 30.7208 34.4331 32.0323 34.7876C34.9786 35.5844 36.6631 37.7885 36.6622 40.847C36.6622 43.5111 36.6622 46.1761 36.6622 48.8401C36.6622 49.6633 36.4161 49.9045 35.5811 49.9045C27.9767 49.9045 20.3724 49.9045 12.768 49.9045C11.9438 49.9045 11.7035 49.6604 11.7026 48.8264C11.7026 46.1292 11.7006 43.4329 11.7026 40.7357C11.7055 37.8119 13.4193 35.5756 16.2474 34.8051C17.5775 34.4428 18.9075 34.0844 20.2806 33.7124C20.2806 32.8774 20.2913 32.0532 20.2698 31.23C20.2659 31.0913 20.1409 30.9409 20.0403 30.8238C19.1849 29.8208 18.7406 28.6587 18.7269 27.3453C18.7093 25.7535 18.7161 24.1608 18.7249 22.569C18.7308 21.485 19.054 20.4938 19.6487 19.5896C19.7288 19.4675 19.8089 19.3464 19.887 19.2233C19.8939 19.2126 19.886 19.1921 19.8812 19.1228C18.6214 18.7819 17.347 18.4284 16.0638 18.1062C15.9535 18.0788 15.7543 18.2273 15.6586 18.3445C14.8471 19.3376 14.0502 20.3444 13.2465 21.3444C12.7143 22.0065 12.2494 22.0036 11.7094 21.3317C10.9155 20.3444 10.1186 19.3591 9.3403 18.3601C9.15476 18.1218 8.98972 18.0505 8.6909 18.1364C7.4126 18.5027 6.12453 18.8357 4.8433 19.194C2.81208 19.7614 1.56796 21.3923 1.56405 23.4977C1.55819 26.6978 1.5621 29.898 1.5621 33.0991C1.5621 33.2261 1.5621 33.352 1.5621 33.5298C1.77694 33.5298 1.95077 33.5298 2.12459 33.5298C4.20464 33.5298 6.28371 33.5288 8.36376 33.5298C8.98875 33.5298 9.34323 33.8032 9.35788 34.2856C9.37351 34.7856 9.00437 35.0874 8.3618 35.0883C5.90872 35.0903 3.45465 35.0913 1.00156 35.0883C0.269152 35.0883 0.00353054 34.8208 0.00353054 34.0893C0.00157745 30.5474 -0.00428184 27.0064 0.00548364 23.4645C0.0123195 20.7223 1.69393 18.489 4.33647 17.7195C5.73684 17.3122 7.14893 16.9451 8.58153 16.5525C8.58153 15.7253 8.59227 14.9148 8.57176 14.1043C8.56785 13.9637 8.46043 13.8064 8.36083 13.6912C7.46729 12.6492 7.03077 11.4403 7.02393 10.0731C7.02003 9.31041 7.02393 8.54772 7.02393 7.76551C6.95557 7.73816 6.90186 7.70887 6.84425 7.69422C5.11966 7.2411 4.06988 6.00089 3.91558 4.23236C3.84625 3.43745 4.13433 3.11909 4.93119 3.11616C5.69485 3.11421 6.45851 3.12593 7.22217 3.1064C7.36963 3.10249 7.58545 3.02046 7.6499 2.90718C8.55223 1.30857 9.90084 0.349604 11.7182 0.051757C11.7465 0.0468743 11.7719 0.0175779 11.7983 0C12.2533 0 12.7084 0 13.1635 0C13.2211 0.0263668 13.2768 0.0654287 13.3373 0.0771473C16.1263 0.606436 17.9261 2.75387 17.9398 5.5839C17.9476 7.09364 17.9476 8.60339 17.9398 10.1131C17.932 11.4617 17.4886 12.6522 16.6156 13.6863C16.5082 13.8133 16.3978 13.9881 16.3929 14.1433C16.3705 14.9373 16.3822 15.7322 16.3822 16.5447C16.555 16.5945 16.7074 16.6404 16.8617 16.6833C18.2357 17.0661 19.6068 17.4587 20.9866 17.82C21.2054 17.8777 21.4954 17.8562 21.6975 17.7585C23.1487 17.0583 24.6418 16.8992 26.1184 17.5564C26.7922 17.8562 27.3586 17.8669 28.0383 17.6521C29.3322 17.2429 30.6535 16.9216 31.9806 16.5583C31.9806 15.781 31.9962 15.0349 31.9698 14.2898C31.963 14.0847 31.8761 13.8445 31.7452 13.6883C30.8859 12.6658 30.4367 11.494 30.4249 10.1629C30.4113 8.57214 30.383 6.97939 30.4318 5.39054C30.5001 3.16987 31.5577 1.53416 33.5499 0.546867C34.0636 0.291988 34.6466 0.178708 35.1983 0C35.6534 0 36.1085 0 36.5635 0ZM35.1007 48.3284C35.1007 48.1799 35.1007 48.0696 35.1007 47.9592C35.1007 45.5071 35.1094 43.054 35.0977 40.6019C35.088 38.56 33.8311 36.9203 31.8605 36.3637C30.5812 36.0024 29.2941 35.6655 28.0158 35.3022C27.7131 35.2163 27.5246 35.2573 27.3186 35.5249C26.5471 36.5287 25.7463 37.5112 24.9524 38.4984C24.4153 39.1664 23.9485 39.1684 23.4153 38.5053C22.6116 37.5053 21.805 36.5073 21.0159 35.4965C20.8392 35.27 20.679 35.2172 20.4017 35.2963C19.139 35.6577 17.8685 35.9907 16.6029 36.3413C14.4984 36.9252 13.268 38.5248 13.2621 40.6918C13.2563 43.0951 13.2602 45.4993 13.2621 47.9026C13.2621 48.0422 13.2797 48.1829 13.2885 48.3137H16.3802C16.3802 46.2786 16.3783 44.2816 16.3812 42.2845C16.3822 41.683 16.6947 41.3216 17.182 41.3363C17.6507 41.3509 17.9369 41.6976 17.9388 42.2806C17.9427 43.9857 17.9408 45.6917 17.9408 47.3967C17.9408 47.7005 17.9408 48.0051 17.9408 48.3293H35.0997L35.1007 48.3284ZM28.0021 24.9547C28.0275 24.9547 28.0539 24.9547 28.0793 24.9547C28.0793 24.1432 28.0949 23.3317 28.0763 22.5211C28.0285 20.4235 26.3127 18.7351 24.2278 18.7175C22.1194 18.6999 20.3382 20.3786 20.2933 22.4831C20.2581 24.1373 20.2571 25.7936 20.2942 27.4478C20.3392 29.4507 21.8958 30.9947 23.968 31.1587C25.885 31.3111 27.6984 29.9537 27.9767 28.0123C28.1203 27.0133 28.0021 25.9762 28.0021 24.9557V24.9547ZM13.2611 7.82117C13.2611 8.58288 13.2582 9.31041 13.2621 10.037C13.2641 10.4608 13.0854 10.7616 12.6762 10.8866C12.1703 11.0408 11.7133 10.6473 11.7045 10.0448C11.6938 9.30552 11.7016 8.5653 11.7016 7.83582H8.58543C8.58543 8.66784 8.56883 9.46275 8.58836 10.2567C8.63817 12.2606 10.1645 13.8182 12.2348 13.9978C14.1508 14.1638 15.9877 12.8152 16.2709 10.8856C16.4173 9.89243 16.2963 8.85924 16.2963 7.82117H13.2592H13.2611ZM39.6992 7.83289H36.6602C36.6602 8.57995 36.6651 9.29185 36.6583 10.0038C36.6524 10.5702 36.3409 10.9207 35.8682 10.9139C35.4102 10.9071 35.1163 10.5692 35.1007 10.0311C35.0958 9.85239 35.0997 9.67368 35.0997 9.49595C35.0997 8.93541 35.0997 8.37585 35.0997 7.82508H31.9845C31.9845 8.65807 31.9669 9.46568 31.9884 10.2723C32.0411 12.2723 33.5802 13.8299 35.6495 13.9998C37.5684 14.157 39.3897 12.8074 39.6738 10.8719C39.8174 9.89145 39.6992 8.87194 39.6992 7.83387V7.83289ZM5.64798 4.67864C5.64798 4.75481 5.63919 4.80364 5.64993 4.84856C5.66555 4.91106 5.69192 4.97063 5.71926 5.02922C6.12844 5.89933 6.86085 6.2333 7.77197 6.23623C10.5317 6.24307 13.2914 6.23916 16.0511 6.23623C16.1576 6.23623 16.264 6.20694 16.3636 6.19327C16.4838 3.88275 15.4144 2.21676 13.5014 1.69724C11.9653 1.28025 10.0844 1.92868 9.45944 3.12105C9.96237 3.12105 10.4458 3.10738 10.9282 3.12495C11.3579 3.14058 11.6303 3.38471 11.6869 3.80756C11.7377 4.18744 11.558 4.4765 11.1967 4.61126C11.0356 4.67083 10.8481 4.67473 10.6723 4.67571C9.01707 4.68059 7.36182 4.67864 5.64798 4.67864ZM32.0109 6.21475C32.1027 6.22452 32.1652 6.23623 32.2277 6.23623C35.0362 6.23623 37.8448 6.24307 40.6533 6.22842C40.9697 6.22647 41.3008 6.15127 41.5986 6.038C42.205 5.80753 42.5713 5.34953 42.7607 4.67864C41.0146 4.67864 39.3438 4.67962 37.6729 4.67864C37.0225 4.67864 36.6592 4.39056 36.6641 3.88959C36.67 3.39155 37.0274 3.12202 37.6905 3.12007C38.0899 3.11909 38.4893 3.12007 38.9151 3.12007C38.1787 1.86325 36.2862 1.25096 34.754 1.73435C32.8478 2.3359 31.8263 3.98432 32.0099 6.21573L32.0109 6.21475ZM10.1704 15.0877C10.0838 16.2048 10.3641 17.1661 11.0112 17.9714C11.184 18.1863 11.3569 18.4011 11.5297 18.6169C11.8393 19.0026 12.1498 19.3874 12.4828 19.8024C13.2504 18.8454 13.973 17.9499 14.6859 17.0466C14.7601 16.9529 14.8119 16.8162 14.8148 16.698C14.8285 16.1814 14.8207 15.6638 14.8207 15.0808C13.2611 15.7566 11.7328 15.7703 10.1713 15.0886L10.1704 15.0877ZM38.2198 15.0769C36.6387 15.7654 35.1104 15.7595 33.5411 15.0769C33.5411 15.4929 33.5333 15.8455 33.544 16.197C33.5519 16.4519 33.4933 16.7742 33.6231 16.948C34.337 17.905 35.1007 18.8259 35.8809 19.8024C36.6573 18.8327 37.3975 17.9128 38.128 16.9861C38.1905 16.907 38.2149 16.7781 38.2168 16.6716C38.2256 16.1697 38.2207 15.6668 38.2207 15.075L38.2198 15.0769ZM24.1819 36.9604C24.9592 35.9887 25.6985 35.0669 26.4328 34.1421C26.4797 34.0835 26.5139 33.9966 26.5149 33.9233C26.5217 33.3804 26.5188 32.8364 26.5188 32.2319C24.9358 32.9253 23.4075 32.9126 21.8421 32.2358C21.8421 32.7817 21.8323 33.2661 21.8479 33.7485C21.8528 33.8999 21.886 34.0805 21.9749 34.1948C22.6839 35.102 23.4094 35.9956 24.1819 36.9604Z" fill="white"/>
<path d="M3.90092 22.6383H10.1401C10.1401 24.0201 10.145 25.3795 10.1303 26.7379C10.1293 26.8531 10.02 27.0045 9.91743 27.0748C9.04733 27.6705 8.17332 28.2622 7.28173 28.8247C7.15087 28.9068 6.87256 28.8941 6.73681 28.8081C5.87257 28.2622 5.02493 27.691 4.18314 27.1099C4.05717 27.023 3.91459 26.8463 3.91264 26.7095C3.89213 25.3648 3.90092 24.0201 3.90092 22.6383ZM8.57956 24.2008H5.51027C5.27688 25.8746 5.40969 26.1607 6.78174 26.9781C6.79541 26.9859 6.80908 27.0015 6.82373 27.0015C6.95361 27.0054 7.11376 27.0562 7.20946 26.9986C7.62645 26.7496 8.02976 26.4761 8.42624 26.1949C8.50339 26.1402 8.57077 26.0142 8.5737 25.9205C8.58737 25.357 8.58054 24.7926 8.58054 24.1998L8.57956 24.2008Z" fill="white"/>
<path d="M38.2207 22.6344H44.4599C44.4599 23.7184 44.3984 24.7896 44.4794 25.8492C44.5419 26.6646 44.2988 27.1695 43.5703 27.5503C42.8984 27.9019 42.2871 28.3716 41.6611 28.8072C41.4472 28.9556 41.2861 28.9898 41.0547 28.8306C40.1992 28.2417 39.3262 27.6792 38.4697 27.0914C38.3555 27.0132 38.2334 26.8472 38.2315 26.7203C38.2139 25.3746 38.2207 24.0289 38.2207 22.6344ZM39.8076 24.1939C39.7152 25.4355 40.1279 26.3508 41.0459 26.94C41.0869 26.9664 41.1269 27.0103 41.1699 27.0142C41.2851 27.025 41.4287 27.0621 41.5136 27.0103C41.9287 26.7574 42.333 26.4859 42.7304 26.2056C42.8095 26.15 42.8896 26.0308 42.8916 25.939C42.9062 25.3619 42.8994 24.7838 42.8994 24.1939H39.8086H39.8076Z" fill="white"/>
<path d="M12.477 34.3364C12.4643 34.7583 12.0981 35.103 11.6772 35.0893C11.2534 35.0756 10.9116 34.7133 10.9252 34.2895C10.9379 33.8647 11.3002 33.5239 11.724 33.5366C12.1479 33.5493 12.4906 33.9126 12.477 34.3354V34.3364Z" fill="white"/>
<path d="M36.6406 33.5376C37.0635 33.5258 37.4258 33.8706 37.4365 34.2934C37.4473 34.7143 37.1026 35.0786 36.6797 35.0893C36.2578 35.101 35.8955 34.7563 35.8848 34.3325C35.8731 33.9096 36.2168 33.5483 36.6406 33.5366V33.5376Z" fill="white"/>
<path d="M26.5217 39.7963H32.7608C32.7608 40.1898 32.7608 40.5882 32.7608 40.9867C32.7608 41.9124 32.7745 42.8382 32.7482 43.763C32.7433 43.9349 32.6212 44.1624 32.4806 44.261C31.6447 44.8489 30.7824 45.3987 29.9416 45.9798C29.714 46.137 29.5519 46.1204 29.3341 45.972C28.4914 45.3938 27.633 44.8382 26.7893 44.2601C26.6721 44.18 26.5344 44.0228 26.5324 43.8997C26.5139 42.5404 26.5207 41.181 26.5207 39.7972L26.5217 39.7963ZM28.1193 41.3529C27.925 43.1644 27.9308 43.178 29.3351 44.0872C29.3898 44.1224 29.4406 44.1732 29.5002 44.1878C29.5851 44.2083 29.7013 44.2405 29.7619 44.2015C30.214 43.9153 30.6583 43.6185 31.0958 43.3109C31.1583 43.2669 31.1945 43.1458 31.1954 43.0609C31.2042 42.4984 31.2003 41.9359 31.2003 41.3529H28.1203H28.1193Z" fill="white"/>
<path d="M24.4026 25.7428C24.6741 25.7428 24.8723 25.7154 25.0588 25.7486C25.4768 25.8219 25.7307 26.0826 25.7307 26.5133C25.7307 26.943 25.4807 27.2408 25.0608 27.274C24.4807 27.3189 23.8938 27.315 23.3127 27.2769C22.8381 27.2457 22.5354 26.8082 22.6458 26.3326C22.887 25.2926 23.1477 24.2575 23.4221 23.2252C23.5471 22.7546 23.9729 22.5221 24.3909 22.6471C24.8147 22.7741 25.0315 23.1696 24.9192 23.6491C24.76 24.3248 24.5871 24.9977 24.4026 25.7418V25.7428Z" fill="white"/>
</svg>
