<svg width="52" height="49" viewBox="0 0 52 49" fill="none" xmlns="http://www.w3.org/2000/svg">
<path d="M14 14C20.6274 14 26 11.3137 26 8C26 4.68629 20.6274 2 14 2C7.37258 2 2 4.68629 2 8C2 11.3137 7.37258 14 14 14Z" stroke="white" stroke-width="2.4" stroke-linecap="round" stroke-linejoin="round"/>
<path d="M2 7.99997V16.4C2 19.7132 7.3724 22.4 14 22.4C20.6276 22.4 26 19.7132 26 16.4V7.99997" stroke="white" stroke-width="2.4" stroke-linecap="round" stroke-linejoin="round"/>
<path d="M2 16.4V24.8C2 28.1132 7.3724 30.8 14 30.8C20.6276 30.8 26 28.1132 26 24.8V16.4" stroke="white" stroke-width="2.4" stroke-linecap="round" stroke-linejoin="round"/>
<path d="M2 24.8V33.2C2 36.5132 7.3724 39.2 14 39.2C20.6276 39.2 26 36.5132 26 33.2V24.8" stroke="white" stroke-width="2.4" stroke-linecap="round" stroke-linejoin="round"/>
<path d="M2 33.2V41.6C2 44.9132 7.3724 47.6 14 47.6C20.6276 47.6 26 44.9132 26 41.6V33.2" stroke="white" stroke-width="2.4" stroke-linecap="round" stroke-linejoin="round"/>
<path d="M38 30.8C44.6274 30.8 50 28.1137 50 24.8C50 21.4863 44.6274 18.8 38 18.8C31.3726 18.8 26 21.4863 26 24.8C26 28.1137 31.3726 30.8 38 30.8Z" stroke="white" stroke-width="2.4" stroke-linecap="round" stroke-linejoin="round"/>
<path d="M26 24.8V33.2C26 36.5132 31.3724 39.2 38 39.2C44.6276 39.2 50 36.5132 50 33.2V24.8" stroke="white" stroke-width="2.4" stroke-linecap="round" stroke-linejoin="round"/>
<path d="M26 33.2V41.6C26 44.9132 31.3724 47.6 38 47.6C44.6276 47.6 50 44.9132 50 41.6V33.2" stroke="white" stroke-width="2.4" stroke-linecap="round" stroke-linejoin="round"/>
</svg>
