<svg width="52" height="48" viewBox="0 0 52 48" fill="none" xmlns="http://www.w3.org/2000/svg">
<path d="M25.5108 0.00154985C31.2292 0.00154985 36.9475 -0.00254272 42.6659 0.00257299C46.8239 0.00564242 50.1174 2.72925 50.8837 6.80954C50.984 7.34056 51.0147 7.89203 51.0147 8.4343C51.0229 15.4285 51.027 22.4217 51.0178 29.4159C51.0116 34.1919 47.4225 37.7995 42.6659 37.8026C31.2292 37.8108 19.7925 37.8098 8.35578 37.8026C4.20284 37.8005 0.901161 35.0585 0.13585 30.9895C0.0386517 30.4748 0.00795741 29.9408 0.00693427 29.4159C-0.000227733 22.4053 -0.00329716 15.3947 0.00488798 8.38416C0.00898055 4.07775 2.88094 0.73412 7.13517 0.0721467C7.56898 0.00461928 8.0161 0.00461928 8.4581 0.00461928C14.1427 0.000526707 19.8262 0.00154985 25.5108 0.00154985ZM25.5323 2.54918C19.8979 2.54918 14.2634 2.54815 8.62998 2.55225C8.20538 2.55225 7.77361 2.54815 7.35822 2.61977C4.4484 3.12009 2.55763 5.41398 2.55456 8.45067C2.54842 15.4121 2.54944 22.3726 2.55865 29.334C2.55865 29.8241 2.59651 30.3255 2.70394 30.8022C3.31066 33.49 5.55032 35.2499 8.35783 35.2509C19.7454 35.255 31.133 35.2529 42.5206 35.2519C46.034 35.2519 48.4661 32.8332 48.4691 29.3248C48.4742 22.3808 48.4732 15.4367 48.465 8.49261C48.465 8.00253 48.4313 7.50017 48.3249 7.02338C47.7212 4.2967 45.4908 2.55736 42.5881 2.55225C36.9025 2.54304 31.2179 2.54918 25.5323 2.54918Z" fill="white"/>
<path d="M15.0052 47.5982H12.2611V44.8531C12.0176 44.8531 11.8345 44.8531 11.6523 44.8531C8.92976 44.8531 6.20718 44.8592 3.4846 44.848C2.4901 44.8439 1.91407 44.0274 2.2292 43.1158C2.41746 42.5704 2.84206 42.3024 3.55928 42.3014C6.24811 42.2973 8.9359 42.2993 11.6247 42.2993C11.8099 42.2993 11.9951 42.2993 12.2407 42.2993V39.5645H14.9806V42.2993H15.6794C26.2291 42.2993 36.7787 42.2993 47.3273 42.2993C48.2543 42.2993 48.7004 42.6052 48.8467 43.3296C49.0012 44.096 48.4998 44.7753 47.7243 44.8418C47.5217 44.8592 47.316 44.8521 47.1124 44.8521C36.6477 44.8521 26.184 44.8521 15.7193 44.8521H15.0062V47.5972L15.0052 47.5982Z" fill="white"/>
<path d="M14.3882 18.8786C14.3882 15.714 14.4302 12.5484 14.3678 9.38481C14.3412 8.05779 15.4574 7.49813 16.5143 8.03631C22.8598 11.2653 29.2422 14.4228 35.6113 17.6058C36.3756 17.9874 36.6948 18.4458 36.6129 19.0371C36.5352 19.6009 36.172 19.9181 35.6839 20.1606C32.7158 21.6359 29.7538 23.1246 26.7887 24.6071C23.3827 26.3096 19.9766 28.0111 16.5696 29.7126C15.2671 30.3633 14.3913 29.8241 14.3913 28.3733C14.3913 25.2087 14.3913 22.0442 14.3913 18.8796H14.3872L14.3882 18.8786ZM32.5163 18.9C27.2706 16.2777 22.1324 13.7096 16.9655 11.1262V26.6749C22.1436 24.0864 27.2706 21.5234 32.5163 18.9Z" fill="white"/>
</svg>
